
<svg xmlns="http://www.w3.org/2000/svg" version="1.1" xmlns:xlink="http://www.w3.org/1999/xlink" preserveAspectRatio="none" x="0px" y="0px" width="536px" height="148px" viewBox="0 0 536 148">
<defs>
<g id="Layer0_0_MEMBER_0_MEMBER_0_MEMBER_0_MEMBER_0_MEMBER_0_MEMBER_0_FILL">
<path fill="#074E71" stroke="none" d="
M 675.2 413.2
L 675.2 266.15 195.35 266.2 195.4 413.25 675.2 413.2 Z"/>
</g>

<g id="Layer0_0_MEMBER_0_MEMBER_1_MEMBER_0_MEMBER_0_MEMBER_0_FILL">
<path fill="#001950" stroke="none" d="
M 703 386.1
Q 680.9 342.15 680.95 285.25
L 532.5 295.5
Q 532.65 321.15 536.1 346.95 536.9 353.65 538.3 361.6 541.35 380.3 546.25 399.15 563.05 399.15 581.95 398.45 639.15 396.05 703 386.1 Z"/>
</g>

<g id="Layer0_0_MEMBER_0_MEMBER_2_MEMBER_0_MEMBER_0_MEMBER_0_FILL">
<path fill="#FFFECD" stroke="none" d="
M 704.7 378.25
Q 684.35 336.75 685.6 281.2
L 533.5 291.7
Q 534.1 344.1 548.15 395.3 621.55 393.2 704.7 378.25 Z"/>
</g>

<g id="Layer0_0_MEMBER_0_MEMBER_3_MEMBER_0_MEMBER_0_MEMBER_0_FILL">
<path fill="#C0C09A" stroke="none" d="
M 607.35 294.15
L 606.85 294.95 609.25 298
Q 608.95 298.8 608.9 299.2 608.7 300.25 608.75 301.35
L 608.85 302.05
Q 609.25 304.75 611.35 306.6 613.75 308.7 616.9 308.45 620 308.25 622.1 305.85 624 303.75 624 300.7
L 623.95 300.4 623.95 299.8
Q 623.8 298.65 623.25 297.45 622.45 296 621.35 295.1 619 293.05 615.85 293.25 613.55 293.4 611.8 294.7
L 610.25 293.6
Q 609.45 293.15 608.65 293.35 607.85 293.5 607.35 294.15 Z"/>
</g>

<g id="Layer0_0_MEMBER_0_MEMBER_4_MEMBER_0_MEMBER_0_MEMBER_0_FILL">
<path fill="#C22A2E" stroke="none" d="
M 635.25 329.1
L 643.55 328.05
Q 638.7 324.7 632.9 324.45 629.45 324.35 608.7 326.35
L 588.1 328.35
Q 590.1 330.2 592.1 331.05
L 594.35 331.8
Q 595.8 332.3 596.65 332.45 597.45 339.4 598.85 345.35 600.8 353.7 602.35 362.55 602.5 363.4 603.25 364.1 604.05 364.65 604.2 364.7
L 595.25 365
Q 598.95 368 603.2 368.8 604.65 369.05 648.7 363.95
L 639.7 358.7 635.25 329.1
M 611.55 332.35
L 611.95 334.7
Q 613.65 343.1 615.25 352.05 616.05 356.55 617.1 360.65 617.25 361.5 618 362.15
L 618.95 362.8 610.35 363.1 609.6 362.65 605.15 333.05 611.55 332.35
M 626.85 330.3
L 627.3 332.7
Q 628.9 340.8 630.6 350 631.35 354.35 632.4 358.65 632.65 359.5 633.35 360.15 633.85 360.55 634.3 360.75
L 625.35 361.05 627.05 362.3 624.35 360.7 619.9 331.1 626.85 330.3 Z"/>
</g>

<g id="Layer0_0_MEMBER_0_MEMBER_5_MEMBER_0_MEMBER_0_MEMBER_0_FILL">
<path fill="#001950" stroke="none" d="
M 354.4 346.95
Q 355.5 355.3 356.6 361.6 359.65 380.3 364.55 399.15 381.35 399.15 400.25 398.45 457.45 396.05 521.3 386.1 499.25 342.25 499.3 285.25
L 350.8 295.5
Q 351.05 321.75 354.4 346.95 Z"/>
</g>

<g id="Layer0_0_MEMBER_0_MEMBER_6_MEMBER_0_MEMBER_0_MEMBER_0_FILL">
<path fill="#FFFECD" stroke="none" d="
M 351.85 291.7
Q 352.35 343.75 366.45 395.3 439.95 393.2 523 378.25 502.7 336.7 503.95 281.2
L 351.85 291.7 Z"/>
</g>

<g id="Layer0_0_MEMBER_0_MEMBER_7_MEMBER_0_MEMBER_0_MEMBER_0_FILL">
<path fill="#C0C09A" stroke="none" d="
M 425.65 294.15
Q 425.15 294.9 425.2 294.95
L 427.6 298
Q 427.4 298.4 427.2 299.2 427 300.25 427.05 301.35
L 427.15 302.05
Q 427.5 304.7 429.65 306.6 432.05 308.7 435.2 308.45 438.35 308.2 440.45 305.85 442.35 303.6 442.3 300.7
L 442.3 300.3 442.25 299.8
Q 442.1 298.45 441.55 297.45 440.9 296.15 439.7 295.1 437.35 293 434.15 293.25 431.85 293.4 430.1 294.7
L 428.55 293.6
Q 427.8 293.15 426.95 293.35 426.15 293.5 425.65 294.15 Z"/>
</g>

<g id="Layer0_0_MEMBER_0_MEMBER_8_MEMBER_0_MEMBER_0_MEMBER_0_FILL">
<path fill="#C22A2E" stroke="none" d="
M 449.5 323.7
Q 451.4 322.6 452.65 320.55 427.3 321.7 422.8 322.4 417.3 323.45 413.4 327.35
L 421.8 327.35 425.75 357.15 418.45 363.5 429.2 363.7
Q 432.05 363.4 444.75 363.7 446.75 363.25 449.3 362.4 453.35 360.95 456 357.6
L 447.15 358.5
Q 449.2 357.45 448.9 355 447.65 346.55 447.15 338.7 446.6 332 445.45 325.65 446.6 325.25 447.55 324.7
L 449.5 323.7
M 430.55 329.85
L 430.3 327.4 437.35 327.35 441.3 357.15 439.15 359.05 440.45 357.6 431.6 358.5
Q 432.05 358.2 432.35 357.75 432.9 356.95 432.85 356.15 432.6 351.3 432.2 347.4 431.3 338.65 430.55 329.85 Z"/>
</g>

<g id="Layer0_0_MEMBER_0_MEMBER_9_MEMBER_0_MEMBER_0_MEMBER_0_FILL">
<path fill="#001950" stroke="none" d="
M 172.7 347
Q 173.65 354.15 174.95 361.65 178.05 380.55 182.9 399.2 199.7 399.2 218.6 398.5 275.15 396.2 339.65 386.15 317.55 342.2 317.6 285.3
L 169.15 295.55
Q 169.3 321.1 172.7 347 Z"/>
</g>

<g id="Layer0_0_MEMBER_0_MEMBER_10_MEMBER_0_MEMBER_0_MEMBER_0_FILL">
<path fill="#FFFECD" stroke="none" d="
M 170.15 291.65
Q 170.75 344.05 184.8 395.25 258.2 393.15 341.35 378.2 321 336.7 322.25 281.15
L 170.15 291.65 Z"/>
</g>

<g id="Layer0_0_MEMBER_0_MEMBER_11_MEMBER_0_MEMBER_0_MEMBER_0_FILL">
<path fill="#C0C09A" stroke="none" d="
M 244.05 294.15
Q 243.5 294.9 243.55 294.95
L 245.95 298
Q 245.65 298.85 245.6 299.15 245.4 300.2 245.45 301.35
L 245.55 302.05
Q 245.95 304.75 248.05 306.6 250.5 308.65 253.6 308.45 256.7 308.25 258.8 305.85 260.7 303.75 260.7 300.7
L 260.65 300.35 260.65 299.8
Q 260.5 298.55 259.95 297.45 259.15 296 258.05 295.1 255.7 293.05 252.55 293.25 250.25 293.4 248.5 294.7
L 246.9 293.6
Q 246.2 293.15 245.35 293.3 244.45 293.55 244.05 294.15 Z"/>
</g>

<g id="Layer0_0_MEMBER_0_MEMBER_12_MEMBER_0_FILL">
<path fill="#B5B5B5" stroke="none" d="
M 245.65 292.5
Q 245.8 292.35 245.55 292.35 245.7 292.05 245.3 291.95
L 245.1 291.9 243.95 292.95 243.7 293.45 243.6 293.8
Q 243.65 293.9 243.95 294 244.4 294 244.9 293.65 245.45 293.3 245.55 292.9
L 245.65 292.5 Z"/>
</g>

<g id="Layer0_0_MEMBER_0_MEMBER_12_MEMBER_1_FILL">
<path fill="#9A9A9A" stroke="none" d="
M 245.65 292.5
L 245.55 292.9
Q 245.45 293.3 244.9 293.65 244.4 294 243.95 294 243.65 293.9 243.6 293.8 243.5779296875 293.9326171875 243.55 294.1 243.55 295 244.15 295.6 244.65 296.2 245.55 296.25 246.4 296.3 247.05 295.75
L 248.45 294.45
Q 247.85 294.15 247.15 293.5 246.1 292.6 245.5 291.55
L 245.1 291.9 245.3 291.95
Q 245.7 292.05 245.55 292.35 245.8 292.35 245.65 292.5 Z"/>
</g>

<g id="Layer0_0_MEMBER_0_MEMBER_12_MEMBER_2_MEMBER_0_FILL">
<path fill="#FB5A36" stroke="none" d="
M 251.6 280.15
Q 248.5 280.4 246.4 282.75 244.55 284.8 244.55 287.6 244.95 289 245.25 289.55
L 246.7 291.25
Q 247.45 291.9 248.3 292.05 249.2 292.2 250.15 291.8
L 252 290.6
Q 252.75 290.15 253.35 289.95 254.85 289.5 257.3 289.75 258.2 289.8 258.65 289.55 259.35 289.25 259.5 288.45
L 259.75 286.8
Q 259.35 283.9 257.15 282 254.8 279.9 251.6 280.15
M 256.35 283.05
L 254.9 283.15
Q 253.7 283.35 252.1 284.25 250.4 285.1 249.4 285.95 248.25 286.8 247.4 286.65 246.6 286.5 246.6 285.55 246.85 284.9 247.45 283.8
L 247.5 283.8 247.7 283.45
Q 249.75 281 253.95 282.2 254.45 282.25 256.35 283.05 Z"/>
</g>

<g id="Layer0_0_MEMBER_0_MEMBER_12_MEMBER_2_MEMBER_1_FILL">
<path fill="#FFFFFF" stroke="none" d="
M 247.45 283.8
L 247.2 284.4
Q 247.1 285 247.25 285.25
L 248.15 284.45
Q 248.6 284 249.1 283.7 249.8 283.2 249.95 283.2 250.1 282.8 250.3 282.8 250.5 282.8 250.5 282.7
L 249.7 282.55 249.05 282.6
Q 248.25 282.9 247.8 283.4
L 247.7 283.45 247.5 283.8 247.45 283.8 Z"/>
</g>

<g id="Layer0_0_MEMBER_0_MEMBER_12_MEMBER_2_MEMBER_2_FILL">
<path fill="#FF8217" stroke="none" d="
M 256.35 283.05
Q 254.45 282.25 253.95 282.2 249.75 281 247.7 283.45
L 247.8 283.4
Q 248.25 282.9 249.05 282.6
L 249.7 282.55 250.5 282.7
Q 250.5 282.8 250.3 282.8 250.1 282.8 249.95 283.2 249.8 283.2 249.1 283.7 248.6 284 248.15 284.45
L 247.25 285.25
Q 247.1 285 247.2 284.4
L 247.45 283.8
Q 246.85 284.9 246.6 285.55 246.6 286.5 247.4 286.65 248.25 286.8 249.4 285.95 250.4 285.1 252.1 284.25 253.7 283.35 254.9 283.15
L 256.35 283.05 Z"/>
</g>

<g id="Layer0_0_MEMBER_0_MEMBER_12_MEMBER_2_MEMBER_3_FILL">
<path fill="#CE4620" stroke="none" d="
M 245.25 289.55
Q 244.95 289 244.55 287.6
L 244.55 288.25
Q 244.6 289.4 245 290.45 245.15 290.9 245.5 291.55 246.1 292.6 247.15 293.5 247.85 294.15 248.45 294.45 250.4 295.5 252.7 295.35 255.85 295.1 257.9 292.75 258.9 291.6 259.45 290.2 259.8 289.1 259.8 287.75
L 259.75 287.2 259.75 286.8 259.5 288.45
Q 259.35 289.25 258.65 289.55 258.2 289.8 257.3 289.75 254.85 289.5 253.35 289.95 252.75 290.15 252 290.6
L 250.15 291.8
Q 249.2 292.2 248.3 292.05 247.45 291.9 246.7 291.25
L 245.25 289.55 Z"/>
</g>

<g id="Layer0_0_MEMBER_0_MEMBER_13_MEMBER_0_MEMBER_0_MEMBER_0_FILL">
<path fill="#C22A2E" stroke="none" d="
M 238.3 325.3
L 241 325.5 247 324.95 246.7 325.3
Q 247.2 326.7 247.2 328.05
L 248.5 355.1 240.75 361.45 251.5 361.65
Q 252.55 361.65 253.5 361.35 259.1 360 263.15 355.55
L 254.25 356.45
Q 256.3 355.3 256.15 352.9
L 255.55 345.35
Q 255 337.45 255.25 327.8 255.35 325.45 254.85 323.6 259.45 322.15 262.5 318.45
L 247.95 319.95
Q 246.5 320.2 244.7 320.9 241.3 322.6 238.3 325.3 Z"/>
</g>

<g id="Layer0_0_MEMBER_0_MEMBER_14_MEMBER_0_FILL">
<path fill="#B5B5B5" stroke="none" d="
M 427.2 292
L 426.95 291.95 425.85 292.95 425.55 293.5 425.45 293.85 425.85 294.05
Q 426.3 294.05 426.8 293.7 427.3 293.35 427.4 293
L 427.5 292.55
Q 427.65 292.4 427.45 292.4 427.5 292.15 427.2 292 Z"/>
</g>

<g id="Layer0_0_MEMBER_0_MEMBER_14_MEMBER_1_FILL">
<path fill="#9A9A9A" stroke="none" d="
M 427.4 293
Q 427.3 293.35 426.8 293.7 426.3 294.05 425.85 294.05
L 425.5 293.85 425.45 294.15
Q 425.4 295.05 426 295.65 426.5 296.2 427.4 296.3 428.3 296.4 428.95 295.8
L 430.35 294.5
Q 429.6 294.1 429 293.55 427.95 292.6 427.4 291.6
L 426.95 291.95 427.2 292
Q 427.5 292.15 427.45 292.4 427.65 292.4 427.5 292.55
L 427.4 293 Z"/>
</g>

<g id="Layer0_0_MEMBER_0_MEMBER_14_MEMBER_2_MEMBER_0_FILL">
<path fill="#FB5A36" stroke="none" d="
M 433.5 280.2
Q 430.35 280.45 428.25 282.8 426.4 285.05 426.4 287.65 426.85 289.15 427.15 289.6 427.2 289.75 427.65 290.2
L 428.55 291.3
Q 429.3 291.95 430.2 292.1 431.15 292.25 432 291.85 432.3 291.7 433.85 290.65 434.35 290.35 435.2 290 436.95 289.6 439.15 289.8 440 289.85 440.55 289.6 441.2 289.25 441.35 288.5
L 441.6 286.9
Q 441.25 284 439.05 282.05 436.7 279.95 433.5 280.2
M 438.25 283.1
L 436.75 283.2
Q 435.7 283.4 433.95 284.3 432.3 285.15 431.25 286 430.1 286.85 429.3 286.7 428.45 286.55 428.45 285.6
L 429.3 283.9 429.4 283.85 429.6 283.5
Q 431.6 281.1 435.8 282.3 436.45 282.4 438.25 283.1 Z"/>
</g>

<g id="Layer0_0_MEMBER_0_MEMBER_14_MEMBER_2_MEMBER_1_FILL">
<path fill="#FFFFFF" stroke="none" d="
M 429.3 283.9
L 429.1 284.45
Q 428.95 284.9 429.15 285.35
L 430 284.5
Q 430.65 283.9 431 283.75
L 431.8 283.25
Q 432 282.9 432.2 282.85 432.45 282.85 432.35 282.75
L 431.6 282.65
Q 431.35 282.55 430.9 282.65 430.1 282.95 429.7 283.45
L 429.6 283.5 429.4 283.85 429.3 283.9 Z"/>
</g>

<g id="Layer0_0_MEMBER_0_MEMBER_14_MEMBER_2_MEMBER_2_FILL">
<path fill="#FF8217" stroke="none" d="
M 438.25 283.1
Q 436.45 282.4 435.8 282.3 431.6 281.1 429.6 283.5
L 429.7 283.45
Q 430.1 282.95 430.9 282.65 431.35 282.55 431.6 282.65
L 432.35 282.75
Q 432.45 282.85 432.2 282.85 432 282.9 431.8 283.25
L 431 283.75
Q 430.65 283.9 430 284.5
L 429.15 285.35
Q 428.95 284.9 429.1 284.45
L 429.3 283.9 428.45 285.6
Q 428.45 286.55 429.3 286.7 430.1 286.85 431.25 286 432.3 285.15 433.95 284.3 435.7 283.4 436.75 283.2
L 438.25 283.1 Z"/>
</g>

<g id="Layer0_0_MEMBER_0_MEMBER_14_MEMBER_2_MEMBER_3_FILL">
<path fill="#CE4620" stroke="none" d="
M 435.2 290
Q 434.35 290.35 433.85 290.65 432.3 291.7 432 291.85 431.15 292.25 430.2 292.1 429.3 291.95 428.55 291.3
L 427.65 290.2
Q 427.2 289.75 427.15 289.6 426.85 289.15 426.4 287.65
L 426.4 288.35
Q 426.45 289.45 426.85 290.5 427.2 291.35 427.4 291.6 427.95 292.6 429 293.55 429.6 294.1 430.35 294.5 432.25 295.55 434.55 295.4 437.75 295.15 439.75 292.8 440.75 291.7 441.3 290.25 441.7 288.9 441.65 287.8
L 441.65 287.2 441.6 286.9 441.35 288.5
Q 441.2 289.25 440.55 289.6 440 289.85 439.15 289.8 436.95 289.6 435.2 290 Z"/>
</g>

<g id="Layer0_0_MEMBER_0_MEMBER_15_MEMBER_0_FILL">
<path fill="#B5B5B5" stroke="none" d="
M 606.9 293.85
Q 606.95 293.95 607.25 294.05 607.7 294.05 608.2 293.7 608.75 293.35 608.85 293
L 608.95 292.55
Q 609.1 292.4 608.85 292.4 609 292.1 608.6 292
L 608.4 291.95 607.3 292.95 607 293.5 606.9 293.85 Z"/>
</g>

<g id="Layer0_0_MEMBER_0_MEMBER_15_MEMBER_1_FILL">
<path fill="#9A9A9A" stroke="none" d="
M 606.85 294.15
Q 606.85 295.1 607.45 295.65 607.95 296.25 608.85 296.3 609.75 296.4 610.35 295.8
L 611.75 294.5
Q 610.95 294.05 610.45 293.55 609.4 292.65 608.8 291.6
L 608.4 291.95 608.6 292
Q 609 292.1 608.85 292.4 609.1 292.4 608.95 292.55
L 608.85 293
Q 608.75 293.35 608.2 293.7 607.7 294.05 607.25 294.05 606.95 293.95 606.9 293.85 606.86875 293.98125 606.85 294.15 Z"/>
</g>

<g id="Layer0_0_MEMBER_0_MEMBER_15_MEMBER_2_MEMBER_0_FILL">
<path fill="#FB5A36" stroke="none" d="
M 614.9 280.2
Q 611.8 280.45 609.7 282.8 607.85 284.95 607.85 287.65 608.25 289.05 608.55 289.6
L 610 291.3
Q 610.75 291.95 611.6 292.1 612.5 292.25 613.45 291.85
L 615.3 290.65
Q 615.8 290.35 616.65 290 618.35 289.6 620.6 289.8 621.5 289.85 621.95 289.6 622.65 289.3 622.8 288.5
L 623.05 286.9
Q 622.6 284 620.45 282.05 618.1 279.95 614.9 280.2
M 619.65 283.1
L 618.2 283.2
Q 617 283.4 615.4 284.3 613.7 285.15 612.7 286 611.55 286.85 610.7 286.7 609.9 286.55 609.9 285.6 610.2 284.8 610.75 283.9
L 610.8 283.85 611 283.5
Q 613.05 281.1 617.25 282.3 617.95 282.4 619.65 283.1 Z"/>
</g>

<g id="Layer0_0_MEMBER_0_MEMBER_15_MEMBER_2_MEMBER_1_FILL">
<path fill="#FFFFFF" stroke="none" d="
M 611.45 284.5
Q 611.9 284.05 612.4 283.75 613.1 283.25 613.25 283.25 613.35 282.95 613.6 282.85 613.8 282.85 613.8 282.75
L 613 282.65
Q 612.8 282.6 612.35 282.65 611.55 282.95 611.1 283.45
L 611 283.5 610.8 283.85 610.75 283.9 610.5 284.45
Q 610.4 285 610.55 285.35
L 611.45 284.5 Z"/>
</g>

<g id="Layer0_0_MEMBER_0_MEMBER_15_MEMBER_2_MEMBER_2_FILL">
<path fill="#FF8217" stroke="none" d="
M 618.2 283.2
L 619.65 283.1
Q 617.95 282.4 617.25 282.3 613.05 281.1 611 283.5
L 611.1 283.45
Q 611.55 282.95 612.35 282.65 612.8 282.6 613 282.65
L 613.8 282.75
Q 613.8 282.85 613.6 282.85 613.35 282.95 613.25 283.25 613.1 283.25 612.4 283.75 611.9 284.05 611.45 284.5
L 610.55 285.35
Q 610.4 285 610.5 284.45
L 610.75 283.9
Q 610.2 284.8 609.9 285.6 609.9 286.55 610.7 286.7 611.55 286.85 612.7 286 613.7 285.15 615.4 284.3 617 283.4 618.2 283.2 Z"/>
</g>

<g id="Layer0_0_MEMBER_0_MEMBER_15_MEMBER_2_MEMBER_3_FILL">
<path fill="#CE4620" stroke="none" d="
M 616.65 290
Q 615.8 290.35 615.3 290.65
L 613.45 291.85
Q 612.5 292.25 611.6 292.1 610.75 291.95 610 291.3
L 608.55 289.6
Q 608.25 289.05 607.85 287.65
L 607.85 288.35
Q 607.9 289.45 608.3 290.5 608.45 290.95 608.8 291.6 609.4 292.65 610.45 293.55 610.95 294.05 611.75 294.5 613.7 295.55 615.95 295.4 619.1 295.15 621.2 292.8 622.25 291.6 622.75 290.25 623.1 289.15 623.1 287.8
L 623.05 287.3 623.05 286.9 622.8 288.5
Q 622.65 289.3 621.95 289.6 621.5 289.85 620.6 289.8 618.35 289.6 616.65 290 Z"/>
</g>
</defs>

<g transform="matrix( 1, 0, 0, 1, -169.15,-266.15) ">
<use xlink:href="#Layer0_0_MEMBER_0_MEMBER_0_MEMBER_0_MEMBER_0_MEMBER_0_MEMBER_0_FILL"/>
</g>

<g transform="matrix( 1, 0, 0, 1, -169.15,-266.15) ">
<use xlink:href="#Layer0_0_MEMBER_0_MEMBER_1_MEMBER_0_MEMBER_0_MEMBER_0_FILL"/>
</g>

<g transform="matrix( 1, 0, 0, 1, -169.15,-266.15) ">
<use xlink:href="#Layer0_0_MEMBER_0_MEMBER_2_MEMBER_0_MEMBER_0_MEMBER_0_FILL"/>
</g>

<g transform="matrix( 1, 0, 0, 1, -169.15,-266.15) ">
<use xlink:href="#Layer0_0_MEMBER_0_MEMBER_3_MEMBER_0_MEMBER_0_MEMBER_0_FILL"/>
</g>

<g transform="matrix( 1, 0, 0, 1, -169.15,-266.15) ">
<use xlink:href="#Layer0_0_MEMBER_0_MEMBER_4_MEMBER_0_MEMBER_0_MEMBER_0_FILL"/>
</g>

<g transform="matrix( 1, 0, 0, 1, -169.15,-266.15) ">
<use xlink:href="#Layer0_0_MEMBER_0_MEMBER_5_MEMBER_0_MEMBER_0_MEMBER_0_FILL"/>
</g>

<g transform="matrix( 1, 0, 0, 1, -169.15,-266.15) ">
<use xlink:href="#Layer0_0_MEMBER_0_MEMBER_6_MEMBER_0_MEMBER_0_MEMBER_0_FILL"/>
</g>

<g transform="matrix( 1, 0, 0, 1, -169.15,-266.15) ">
<use xlink:href="#Layer0_0_MEMBER_0_MEMBER_7_MEMBER_0_MEMBER_0_MEMBER_0_FILL"/>
</g>

<g transform="matrix( 1, 0, 0, 1, -169.15,-266.15) ">
<use xlink:href="#Layer0_0_MEMBER_0_MEMBER_8_MEMBER_0_MEMBER_0_MEMBER_0_FILL"/>
</g>

<g transform="matrix( 1, 0, 0, 1, -169.15,-266.15) ">
<use xlink:href="#Layer0_0_MEMBER_0_MEMBER_9_MEMBER_0_MEMBER_0_MEMBER_0_FILL"/>
</g>

<g transform="matrix( 1, 0, 0, 1, -169.15,-266.15) ">
<use xlink:href="#Layer0_0_MEMBER_0_MEMBER_10_MEMBER_0_MEMBER_0_MEMBER_0_FILL"/>
</g>

<g transform="matrix( 1, 0, 0, 1, -169.15,-266.15) ">
<use xlink:href="#Layer0_0_MEMBER_0_MEMBER_11_MEMBER_0_MEMBER_0_MEMBER_0_FILL"/>
</g>

<g transform="matrix( 1, 0, 0, 1, -169.15,-266.15) ">
<use xlink:href="#Layer0_0_MEMBER_0_MEMBER_12_MEMBER_0_FILL"/>
</g>

<g transform="matrix( 1, 0, 0, 1, -169.15,-266.15) ">
<use xlink:href="#Layer0_0_MEMBER_0_MEMBER_12_MEMBER_1_FILL"/>
</g>

<g transform="matrix( 1, 0, 0, 1, -169.15,-266.15) ">
<use xlink:href="#Layer0_0_MEMBER_0_MEMBER_12_MEMBER_2_MEMBER_0_FILL"/>
</g>

<g transform="matrix( 1, 0, 0, 1, -169.15,-266.15) ">
<use xlink:href="#Layer0_0_MEMBER_0_MEMBER_12_MEMBER_2_MEMBER_1_FILL"/>
</g>

<g transform="matrix( 1, 0, 0, 1, -169.15,-266.15) ">
<use xlink:href="#Layer0_0_MEMBER_0_MEMBER_12_MEMBER_2_MEMBER_2_FILL"/>
</g>

<g transform="matrix( 1, 0, 0, 1, -169.15,-266.15) ">
<use xlink:href="#Layer0_0_MEMBER_0_MEMBER_12_MEMBER_2_MEMBER_3_FILL"/>
</g>

<g transform="matrix( 1, 0, 0, 1, -169.15,-266.15) ">
<use xlink:href="#Layer0_0_MEMBER_0_MEMBER_13_MEMBER_0_MEMBER_0_MEMBER_0_FILL"/>
</g>

<g transform="matrix( 1, 0, 0, 1, -169.15,-266.15) ">
<use xlink:href="#Layer0_0_MEMBER_0_MEMBER_14_MEMBER_0_FILL"/>
</g>

<g transform="matrix( 1, 0, 0, 1, -169.15,-266.15) ">
<use xlink:href="#Layer0_0_MEMBER_0_MEMBER_14_MEMBER_1_FILL"/>
</g>

<g transform="matrix( 1, 0, 0, 1, -169.15,-266.15) ">
<use xlink:href="#Layer0_0_MEMBER_0_MEMBER_14_MEMBER_2_MEMBER_0_FILL"/>
</g>

<g transform="matrix( 1, 0, 0, 1, -169.15,-266.15) ">
<use xlink:href="#Layer0_0_MEMBER_0_MEMBER_14_MEMBER_2_MEMBER_1_FILL"/>
</g>

<g transform="matrix( 1, 0, 0, 1, -169.15,-266.15) ">
<use xlink:href="#Layer0_0_MEMBER_0_MEMBER_14_MEMBER_2_MEMBER_2_FILL"/>
</g>

<g transform="matrix( 1, 0, 0, 1, -169.15,-266.15) ">
<use xlink:href="#Layer0_0_MEMBER_0_MEMBER_14_MEMBER_2_MEMBER_3_FILL"/>
</g>

<g transform="matrix( 1, 0, 0, 1, -169.15,-266.15) ">
<use xlink:href="#Layer0_0_MEMBER_0_MEMBER_15_MEMBER_0_FILL"/>
</g>

<g transform="matrix( 1, 0, 0, 1, -169.15,-266.15) ">
<use xlink:href="#Layer0_0_MEMBER_0_MEMBER_15_MEMBER_1_FILL"/>
</g>

<g transform="matrix( 1, 0, 0, 1, -169.15,-266.15) ">
<use xlink:href="#Layer0_0_MEMBER_0_MEMBER_15_MEMBER_2_MEMBER_0_FILL"/>
</g>

<g transform="matrix( 1, 0, 0, 1, -169.15,-266.15) ">
<use xlink:href="#Layer0_0_MEMBER_0_MEMBER_15_MEMBER_2_MEMBER_1_FILL"/>
</g>

<g transform="matrix( 1, 0, 0, 1, -169.15,-266.15) ">
<use xlink:href="#Layer0_0_MEMBER_0_MEMBER_15_MEMBER_2_MEMBER_2_FILL"/>
</g>

<g transform="matrix( 1, 0, 0, 1, -169.15,-266.15) ">
<use xlink:href="#Layer0_0_MEMBER_0_MEMBER_15_MEMBER_2_MEMBER_3_FILL"/>
</g>
</svg>
