
<svg xmlns="http://www.w3.org/2000/svg" version="1.1" xmlns:xlink="http://www.w3.org/1999/xlink" preserveAspectRatio="none" x="0px" y="0px" width="350px" height="203px" viewBox="0 0 350 203">
<defs>
<g id="Layer0_0_MEMBER_0_MEMBER_0_MEMBER_0_MEMBER_0_MEMBER_0_MEMBER_0_FILL">
<path fill="#FF5A33" stroke="none" d="
M 771.7 197.85
Q 771.7 192.2 766.05 192.2
L 563.85 192.2
Q 558.2 192.2 558.2 197.85
L 558.2 266.15
Q 558.2 271.8 563.85 271.8
L 766.05 271.8
Q 771.7 271.8 771.7 266.15
L 771.7 197.85 Z"/>
</g>

<g id="Layer0_0_MEMBER_0_MEMBER_0_MEMBER_1_MEMBER_0_MEMBER_0_MEMBER_0_FILL">
<path fill="#010553" stroke="none" d="
M 601.6 212.3
Q 601.6 205.75 597.6 203.7 593.5 201.55 585.15 201.55
L 571.1 201.55 571.1 262.35 584.15 262.35 584.15 239.95
Q 594.95 240.15 598.3 237.65 601.6 235.2 601.6 229.2
L 601.6 212.3
M 588.6 213.45
L 588.6 228.05
Q 588.6 231.3 584.15 231.3
L 584.15 210.25
Q 588.6 210.25 588.6 213.45
M 626.85 229.3
L 619.2 201.55 604.05 201.55 604.05 262.35 615.15 262.35 615.15 229.95 624.25 262.35 638 262.35 638 201.55 626.85 201.55 626.85 229.3
M 692.3 262.35
L 692.3 201.55 678.95 201.55 678.95 262.35 692.3 262.35
M 655.6 246
L 661.55 246 663.8 262.35 677.05 262.35 667 201.55 650.1 201.55 640.1 262.35 653.35 262.35 655.6 246
M 658.55 219.4
L 660.45 237.6 656.75 237.6 658.55 219.4
M 712.15 222.25
L 724.25 222.25 724.25 211.8
Q 724.25 200.95 710.45 200.95 694.95 200.95 694.95 212.8
L 694.95 219.65
Q 694.95 223.05 697.05 225.9 699.35 229 707.65 236.95 712.05 241.45 712.05 244.75
L 712.05 251.95
Q 712.05 254.05 709.6 254.05 707.1 254.05 707.1 251.95
L 707.1 238 694.95 238 694.95 251.85
Q 694.95 262.9 709.9 262.9 725.4 262.9 725.4 250.75
L 725.4 243.05
Q 725.4 238.9 723.1 235.8 720.6 232.3 712.45 224.65 708 220.05 708 216.7
L 707.7 212.8
Q 707.7 209.25 710.1 209.25 712.15 209.25 712.15 211.1
L 712.15 222.25
M 758.75 212.3
Q 758.75 205.75 754.7 203.7 750.7 201.55 742.3 201.55
L 728.25 201.55 728.25 262.35 741.3 262.35 741.3 239.95
Q 752.1 240.2 755.45 237.65 758.75 235.2 758.75 229.2
L 758.75 212.3
M 741.3 210.25
Q 745.7 210.25 745.7 213.45
L 745.7 228.05
Q 745.7 231.3 741.3 231.3
L 741.3 210.25 Z"/>
</g>

<g id="Layer0_0_MEMBER_0_MEMBER_1_MEMBER_0_MEMBER_0_MEMBER_0_MEMBER_0_FILL">
<path fill="#FF5A33" stroke="none" d="
M 815.95 280.3
L 815.95 183.65
Q 815.95 175.65 807.95 175.65
L 521.95 175.65
Q 513.95 175.65 513.95 183.65
L 513.95 280.3
Q 513.95 288.3 521.95 288.3
L 807.95 288.3
Q 815.95 288.3 815.95 280.3 Z"/>
</g>

<g id="Layer0_0_MEMBER_0_MEMBER_1_MEMBER_1_MEMBER_0_MEMBER_0_MEMBER_0_FILL">
<path fill="#010553" stroke="none" d="
M 600.25 188.95
L 578.85 188.95 578.85 274.95 594.6 274.95 594.6 229.15 607.45 274.95 626.9 274.95 626.9 188.95 611.1 188.95 611.1 228.2 600.25 188.95
M 552.1 188.95
L 532.25 188.95 532.25 274.95 550.7 274.95 550.7 243.3
Q 566.05 243.55 570.7 240 575.4 236.5 575.4 228.05
L 575.4 204.2
Q 575.4 194.95 569.7 191.95 563.95 188.95 552.1 188.95
M 556.95 205.8
L 556.95 226.45
Q 556.95 231 550.7 231
L 550.7 201.25
Q 556.95 201.25 556.95 205.8
M 663.35 274.95
L 682.1 274.95 667.9 188.95 643.95 188.95 629.85 274.95 648.6 274.95 651.8 251.85 660.15 251.85 663.35 274.95
M 655.95 214.25
L 658.65 239.95 653.4 239.95 655.95 214.25
M 731.75 218.25
L 748.9 218.25 748.9 203.4
Q 748.9 188.15 729.35 188.15 707.45 188.15 707.45 204.9
L 707.45 214.55
Q 707.45 219.3 710.4 223.4 713.4 227.45 725.35 239.05 731.65 245.45 731.65 250.05
L 731.65 260.25
Q 731.65 263.2 728.15 263.2 724.6 263.2 724.6 260.25
L 724.6 240.55 707.45 240.55 707.45 260.1
Q 707.45 275.7 728.55 275.7 750.5 275.7 750.5 258.55
L 750.5 247.65
Q 750.5 241.95 747.25 237.4 744.1 232.9 732.2 221.6 725.85 215.1 725.85 210.4
L 725.5 204.85
Q 725.5 199.85 728.9 199.85 731.75 199.85 731.75 202.45
L 731.75 218.25
M 791.95 191.95
Q 786.25 188.95 774.35 188.95
L 754.55 188.95 754.55 274.95 772.95 274.95 772.95 243.3
Q 788.3 243.55 793 240 797.65 236.5 797.65 228.05
L 797.65 204.2
Q 797.65 194.95 791.95 191.95
M 779.25 205.8
L 779.25 226.45
Q 779.25 231 772.95 231
L 772.95 201.25
Q 779.25 201.25 779.25 205.8
M 703.65 188.95
L 684.8 188.95 684.8 274.95 703.65 274.95 703.65 188.95 Z"/>
</g>

<g id="Layer0_0_MEMBER_0_MEMBER_2_MEMBER_0_MEMBER_0_MEMBER_0_MEMBER_0_MEMBER_0_MEMBER_0_FILL">
<path fill="#00315D" stroke="none" d="
M 553.25 174
Q 530.7 163.2 507.05 171.45 483.35 179.8 472.4 202.25
L 472.4 202.3
Q 461.65 224.85 469.9 248.6 478.25 272.25 500.75 283.1 519.2 292 538.25 288.1
L 561.2 363.8
Q 562.3 367.6 566.8 369.3 571.2 370.95 576.35 369.2 581.3 367.4 583.85 363.3 586.25 359.3 584.75 355.55
L 555.45 282.1
Q 572.8 273.15 581.5 254.8 592.4 232.3 584.15 208.6 575.9 184.95 553.25 174
M 528.95 172.05
Q 538.55 172.3 547.7 175.8 561.1 181.1 569.95 192.35 578.25 202.95 581.5 216.2 584.35 227.8 582.05 239.8 580.55 247.25 576.8 253.8
L 569.7 263.2
Q 577.15 252.65 579.1 239.7 581.05 226.55 577.05 213.9 572.7 200.2 562.45 190.4 551.1 179.55 535.75 174.6 531.45 173.1 528.95 172.05
M 510.35 180.9
Q 530.1 174.05 548.85 183.05 567.75 192.1 574.65 211.9 581.55 231.7 572.45 250.45
L 572.4 250.45
Q 563.5 269.3 543.7 276.2 523.95 283.1 505.1 274.05 486.3 265 479.4 245.3 472.5 225.55 481.5 206.65 490.65 187.85 510.35 180.9
M 471.5 244.15
Q 466.75 226.7 472.05 209.75 474.75 201 482.3 197.5 470 212.65 472.1 232.75 473.75 249 483.75 262.15 491.95 272.7 503.85 277.9
L 513.55 280.1
Q 499 282.65 488.1 272.15 476.05 260.6 471.5 244.15
M 544.05 287.2
Q 545.6 284.9 546.35 286 547.1 287 556.45 314.45 565.65 341.75 571.1 346.6 576.5 351.45 576.7 352.35 570.65 348.7 564.65 360.35 562.85 358.65 553.25 322.85 543.75 287.75 544.05 287.2
M 550.1 281.75
Q 545 281.85 541 285.45
L 539.95 286.35
Q 540.7 281.75 545.2 280.55 548.45 279.9 551.05 281.9
L 550.1 281.75 Z"/>
</g>

<g id="Layer0_0_MEMBER_0_MEMBER_2_MEMBER_0_MEMBER_0_MEMBER_0_MEMBER_0_MEMBER_0_MEMBER_1_FILL">
<path fill="#003A6B" stroke="none" d="
M 546.35 286
Q 545.6 284.9 544.05 287.2 543.75 287.75 553.25 322.85 562.85 358.65 564.65 360.35 570.65 348.7 576.7 352.35 576.5 351.45 571.1 346.6 565.65 341.75 556.45 314.45 547.1 287 546.35 286
M 472.05 209.75
Q 466.75 226.7 471.5 244.15 476.05 260.6 488.1 272.15 499 282.65 513.55 280.1
L 503.85 277.9
Q 491.95 272.7 483.75 262.15 473.75 249 472.1 232.75 470 212.65 482.3 197.5 474.75 201 472.05 209.75
M 535.75 174.6
Q 551.1 179.55 562.45 190.4 572.7 200.2 577.05 213.9 581.05 226.55 579.1 239.7 577.15 252.65 569.7 263.2
L 576.8 253.8
Q 580.55 247.25 582.05 239.8 584.35 227.8 581.5 216.2 578.25 202.95 569.95 192.35 561.1 181.1 547.7 175.8 538.55 172.3 528.95 172.05 531.45 173.1 535.75 174.6 Z"/>
</g>

<g id="Layer0_0_MEMBER_0_MEMBER_2_MEMBER_0_MEMBER_0_MEMBER_0_MEMBER_0_MEMBER_0_MEMBER_2_FILL">
<path fill="#000102" stroke="none" d="
M 545.2 280.55
Q 540.7 281.75 539.95 286.35
L 541 285.45
Q 545 281.85 550.1 281.75
L 551.05 281.9
Q 548.45 279.9 545.2 280.55 Z"/>
</g>

<path id="Layer0_0_MEMBER_0_MEMBER_2_MEMBER_0_MEMBER_0_MEMBER_0_MEMBER_1_MEMBER_0_1_STROKES" stroke="#000102" stroke-width="2" stroke-linejoin="round" stroke-linecap="round" fill="none" d="
M 581.5 254.8
Q 592.45 232.2 584.15 208.6 575.9 184.95 553.25 174 530.7 163.2 507.05 171.45 483.3 179.8 472.45 202.3
L 472.4 202.3
Q 461.65 224.85 469.9 248.6 478.25 272.25 500.75 283.1 519.2 292 538.3 288.1
L 561.2 363.8
Q 562.3 367.6 566.8 369.3 571.2 370.95 576.35 369.2 581.3 367.4 583.85 363.3 586.25 359.3 584.75 355.55
L 555.45 282.1
Q 572.8 273.2 581.55 254.8
L 581.5 254.8 Z"/>

<path id="Layer0_0_MEMBER_0_MEMBER_2_MEMBER_0_MEMBER_0_MEMBER_0_MEMBER_2_MEMBER_0_1_STROKES" stroke="#000102" stroke-width="1" stroke-linejoin="round" stroke-linecap="round" fill="none" d="
M 574.7 211.9
Q 581.6 231.65 572.45 250.45 563.45 269.3 543.75 276.2 524.05 283.15 505.1 274.05 486.3 265 479.4 245.25 472.5 225.55 481.5 206.7
L 481.5 206.65
Q 490.65 187.85 510.35 180.95 530.1 174.05 548.85 183.05 567.7 192.1 574.7 211.9 Z"/>
</defs>

<g transform="matrix( 1, 0, 0, 1, -466.3,-167.9) ">
<use xlink:href="#Layer0_0_MEMBER_0_MEMBER_0_MEMBER_0_MEMBER_0_MEMBER_0_MEMBER_0_FILL"/>
</g>

<g transform="matrix( 1, 0, 0, 1, -466.3,-167.9) ">
<use xlink:href="#Layer0_0_MEMBER_0_MEMBER_0_MEMBER_1_MEMBER_0_MEMBER_0_MEMBER_0_FILL"/>
</g>

<g transform="matrix( 1, 0, 0, 1, -466.3,-167.9) ">
<use xlink:href="#Layer0_0_MEMBER_0_MEMBER_1_MEMBER_0_MEMBER_0_MEMBER_0_MEMBER_0_FILL"/>
</g>

<g transform="matrix( 1, 0, 0, 1, -466.3,-167.9) ">
<use xlink:href="#Layer0_0_MEMBER_0_MEMBER_1_MEMBER_1_MEMBER_0_MEMBER_0_MEMBER_0_FILL"/>
</g>

<g transform="matrix( 1, 0, 0, 1, -466.3,-167.9) ">
<use xlink:href="#Layer0_0_MEMBER_0_MEMBER_2_MEMBER_0_MEMBER_0_MEMBER_0_MEMBER_0_MEMBER_0_MEMBER_0_FILL"/>
</g>

<g transform="matrix( 1, 0, 0, 1, -466.3,-167.9) ">
<use xlink:href="#Layer0_0_MEMBER_0_MEMBER_2_MEMBER_0_MEMBER_0_MEMBER_0_MEMBER_0_MEMBER_0_MEMBER_1_FILL"/>
</g>

<g transform="matrix( 1, 0, 0, 1, -466.3,-167.9) ">
<use xlink:href="#Layer0_0_MEMBER_0_MEMBER_2_MEMBER_0_MEMBER_0_MEMBER_0_MEMBER_0_MEMBER_0_MEMBER_2_FILL"/>
</g>

<g transform="matrix( 1, 0, 0, 1, -466.3,-167.9) ">
<use xlink:href="#Layer0_0_MEMBER_0_MEMBER_2_MEMBER_0_MEMBER_0_MEMBER_0_MEMBER_1_MEMBER_0_1_STROKES"/>
</g>

<g transform="matrix( 1, 0, 0, 1, -466.3,-167.9) ">
<use xlink:href="#Layer0_0_MEMBER_0_MEMBER_2_MEMBER_0_MEMBER_0_MEMBER_0_MEMBER_2_MEMBER_0_1_STROKES"/>
</g>
</svg>
