
<svg xmlns="http://www.w3.org/2000/svg" version="1.1" xmlns:xlink="http://www.w3.org/1999/xlink" preserveAspectRatio="none" x="0px" y="0px" width="376px" height="426px" viewBox="0 0 376 426">
<defs>
<g id="Layer0_0_MEMBER_0_FILL">
<path fill="#FB5A36" stroke="none" d="
M 113 55.25
L 66.55 55.25 66.55 480.45 113 480.45 113 55.25 Z"/>
</g>

<g id="Layer0_0_MEMBER_1_FILL">
<path fill="#FB5A36" stroke="none" d="
M 206 55.25
L 159.5 55.25 159.5 480.45 206 480.45 206 55.25 Z"/>
</g>

<g id="Layer0_0_MEMBER_2_FILL">
<path fill="#FB5A36" stroke="none" d="
M 298.95 55.25
L 252.45 55.25 252.45 480.45 298.95 480.45 298.95 55.25 Z"/>
</g>

<g id="Layer0_0_MEMBER_3_FILL">
<path fill="#FB5A36" stroke="none" d="
M 391.9 55.25
L 345.45 55.25 345.45 480.45 391.9 480.45 391.9 55.25 Z"/>
</g>

<g id="Layer0_1_MEMBER_0_MEMBER_0_MEMBER_0_MEMBER_0_MEMBER_0_MEMBER_0_FILL">
<path fill="#67ADD3" stroke="none" d="
M 226.95 90.85
L 72.55 268.35 226.95 445.9 381.4 268.35 226.95 90.85 Z"/>
</g>

<g id="Layer0_1_MEMBER_0_MEMBER_1_MEMBER_0_MEMBER_0_MEMBER_0_MEMBER_0_FILL">
<path fill="#E5D6D1" stroke="none" d="
M 217 106.2
Q 216 103.1 216.3 100.3 215.95 100.15 215.75 100.5
L 215.65 101.1
Q 215.75 102.6 215.45 104.35 215.4 105.5 215 107.65 214.65 110.9 215.3 114.7 215.5 116.1 216.15 118.2
L 216.2 118.3
Q 218.55 119.8 219.2 120.55 219.55 121 220.35 122.4 221.15 123.65 221.7 124.15
L 221.75 124.25 223.2 125.15 223.75 125.4 217 106.2
M 244.05 95.1
L 243.45 95.35 231.5 125.8 231.85 125.75 233.5 125.35 234.55 124.9
Q 235.4 124.55 235.95 123.95 235.95 124 236 123.95
L 236.2 123.75
Q 236.7 123.25 237.7 121.75 238.55 120.45 239.4 119.85 239.9 119.45 240.9 119.15
L 241.75 117.95 244.15 115.15
Q 245.75 113.15 248.15 109.6 250.65 106.45 253.5 105.6 254.9 105.3 254.95 104.55
L 243.25 109.2 241.2 110.45
Q 241.7 109.5 241.85 108.2
L 242.15 105.8 242.85 103.05
Q 243.1 102.3 243.5 99.2 243.8 96.8 244.35 95.4
L 244.05 95.1 Z"/>
</g>

<g id="Layer0_1_MEMBER_0_MEMBER_1_MEMBER_0_MEMBER_0_MEMBER_0_MEMBER_1_FILL">
<path fill="#F9F3F2" stroke="none" d="
M 247.75 90.1
Q 248.25 88.55 248.6 87.1 249 85.35 248.4 84.25 247.65 82.9 245.15 82.3 239.25 80.9 232.4 82.75 226.95 84.2 220.5 87.75 215.6 90.25 214.9 93.25 214.6 94.65 214.1 95.1 213.75 95.35 212.4 95.35 210.45 95.25 208.75 96 207 96.75 205.75 98.2 203.05 101.15 203.85 105.2 204.5 108.8 209 112.8 212.25 115.65 216.15 118.2 215.5 116.1 215.3 114.7 214.65 110.9 215 107.65 215.4 105.5 215.45 104.35 215.75 102.6 215.65 101.1
L 215.75 100.5
Q 215.95 100.15 216.3 100.3 216 103.1 217 106.2
L 223.75 125.35
Q 225.3609375 125.96484375 228 126.05 229.75 126.05 231.5 125.8
L 243.45 95.35 244.05 95.1 244.35 95.4
Q 243.8 96.8 243.5 99.2 243.1 102.3 242.85 103.05
L 242.15 105.8 241.85 108.2
Q 241.7 109.5 241.2 110.45
L 243.25 109.2 254.95 104.55
Q 254.9 105.3 253.5 105.6 250.65 106.45 248.15 109.6 245.75 113.15 244.15 115.15
L 241.75 117.95 240.9 119.15
Q 241.65 118.85 243.1 118.5 252.2 116.5 260.35 111.75 262.9 110.25 263.75 108.8 264.6 107.35 264.3 105.35 263.95 103.65 262.8 102.05 261.25 100.05 257.1 97.7
L 249.2 93.05
Q 248.15 92.5 247.95 92 247.5 91.35 247.75 90.1 Z"/>
</g>

<g id="Layer0_1_MEMBER_0_MEMBER_1_MEMBER_1_MEMBER_0_MEMBER_0_MEMBER_0_FILL">
<path fill="#905837" stroke="none" d="
M 238.15 110
Q 234.8 109.2 232.9 109.05
L 220.9 108.85
Q 219.45 108.85 218.35 109.05 217.3 109.35 215.55 110.25 213.8 110.95 212.35 111.7 210.6 112.55 209.55 113.75 208.3 115.2 208.15 117.3 208.15 119.15 209 121.1 209.5 122.3 210.2 123.1 211.2 124.2 212.25 124.1 213.25 124.1 213.9 123.3 214.55 122.6 214.7 121.5 214.85 120 213.6 117.75 215 116.2 217.45 115.25 219.25 114.65 222.4 114.5 234.8 113.85 243.35 117.5 243.35 118.7 244.3 119.5 245.2 120.4 246.4 120.25 248.1 120.1 249 118.75 249.9 117.3 249.4 115.85 248.9 114.2 246.65 112.9 244.25 111.55 238.15 110 Z"/>
</g>

<g id="Layer0_1_MEMBER_0_MEMBER_1_MEMBER_2_MEMBER_0_MEMBER_0_MEMBER_0_FILL">
<path fill="#F1E1DC" stroke="none" d="
M 221.8 113.45
Q 212.65 114.55 204.55 119.7 196.25 125.15 188.95 131.9 181.85 138.4 176.2 146.35 170.6 154.25 168.05 163.1 165.65 171.1 165.5 179.4 165.45 182.95 163 185.9 156.5 193.6 153.6 203.05 151.15 210.95 151 218.7 150.7 227.7 152.2 236.4 154 246.95 161.1 255 167.85 262.65 176.85 266.9 185.5 270.85 195.1 273.2
L 207.25 275.4
Q 216.65 277.1 226.8 277.7 236.35 278.25 245.55 277.35 255.1 276.6 264.35 273.4 274.35 270 282.25 263.65 289.8 257.6 294.65 249.55 300.05 240.7 301.55 230.45 303 220.35 302.9 210 302.75 199.35 297.35 190.05 293.15 183 292.45 174.45 292.15 170.35 291.4 166.15 290.7 162.4 289.35 159.1 285.75 149.85 279.7 141.85 273.5 133.8 265.15 127.55 260.2 123.9 255 121.6 245.85 117.15 236.05 114.2 229.15 112.7 221.8 113.45
M 233 118.65
Q 234.65 117.25 236.45 118.85 248.15 129.05 255.15 143.3 256 141.05 255.4 138.7 254.65 135.9 256.85 134.9 264.25 138 265.8 145.9 266.2 147.85 265.05 149.45 274.9 157.15 272.65 169.6 272.35 171.1 273.65 172.35 274.95 173.7 277 173.95 281.9 174.7 283.6 179.5 285.7 185.2 285.2 191.2 284.8 194.75 281.85 196.75 288.95 203.2 285.2 212.05 283.65 215.55 280.15 217.6 277.75 218.95 274.8 219.1 273.05 228.05 265.85 232.8 265.1 233.25 263.75 233.8 260.55 234.25 257.15 234.1 251.95 234.8 247.8 238.05 244.05 240.85 239.05 240.9 237.35 241.15 235.45 241.8 229.6 244.55 223.25 244.15 215.65 243.2 210.95 237.1
L 209.4 234.75
Q 195.05 234.25 183.7 225.3 181.2 223.2 179.55 221.3 177.15 218.65 176.8 215.05 176.75 214.35 176.15 213.9
L 174.05 212.35
Q 172 210.95 171.9 207.9 171.7 195.2 176.75 183.85 180.4 175.45 188.75 172.55 183.7 169.3 184.45 162.9 185.55 152.5 191.3 143.2 194.25 138.5 198.2 133.2 205.85 123.3 218 123.6
L 212.4 134.9
Q 218.2 133.7 222.55 129.35 224.05 127.8 225.95 126.9 227.75 126 228.75 127.95 230.05 130.75 232 132.7
L 233 118.65 Z"/>
</g>

<g id="Layer0_1_MEMBER_0_MEMBER_1_MEMBER_2_MEMBER_0_MEMBER_0_MEMBER_1_FILL">
<path fill="#F9F3F2" stroke="none" d="
M 212.4 134.9
L 218 123.6
Q 205.85 123.3 198.2 133.2 194.25 138.5 191.3 143.2 185.55 152.5 184.45 162.9 183.7 169.3 188.75 172.55 180.4 175.45 176.75 183.85 171.7 195.2 171.9 207.9 172 210.95 174.05 212.35
L 176.15 213.9
Q 176.75 214.35 176.8 215.05 177.15 218.65 179.55 221.3 181.2 223.2 183.7 225.3 195.05 234.25 209.4 234.75
L 210.95 237.1
Q 215.65 243.2 223.25 244.15 229.6 244.55 235.45 241.8 237.35 241.15 239.05 240.9 244.05 240.85 247.8 238.05 251.95 234.8 257.15 234.1 260.55 234.25 263.75 233.8 265.1 233.25 265.85 232.8 273.05 228.05 274.8 219.1 277.75 218.95 280.15 217.6 283.65 215.55 285.2 212.05 288.95 203.2 281.85 196.75 284.8 194.75 285.2 191.2 285.7 185.2 283.6 179.5 281.9 174.7 277 173.95 274.95 173.7 273.65 172.35 272.35 171.1 272.65 169.6 274.9 157.15 265.05 149.45 266.2 147.85 265.8 145.9 264.25 138 256.85 134.9 254.65 135.9 255.4 138.7 256 141.05 255.15 143.3 248.15 129.05 236.45 118.85 234.65 117.25 233 118.65
L 232 132.7
Q 230.05 130.75 228.75 127.95 227.75 126 225.95 126.9 224.05 127.8 222.55 129.35 218.2 133.7 212.4 134.9 Z"/>
</g>

<g id="Layer0_1_MEMBER_0_MEMBER_1_MEMBER_3_MEMBER_0_MEMBER_0_MEMBER_0_FILL">
<path fill="#666500" stroke="none" d="
M 234.25 143.4
Q 230.2 143 225.1 142.75 224.55 146.9 224.15 152.4 219.85 151.95 215.3 152.6 211.5 153.1 208.05 155.3 204.1 157.75 202.05 161.4 200.8 163 199.95 164.95 198.5 168.2 198 171.55 197.6 173.2 197.65 174.65 197.6 176.5 197.75 179.05 198.2 183.35 201.75 187.35 205.4 191.05 210.4 193.35 215.05 195.45 220.8 196.2
L 221.65 196.35
Q 221.5 202.5 221.6 207.1 221.5 207.05 221.5 207.15
L 220.1 206.9
Q 217.15 206.6 214.7 205.3 213.6 204.85 213 204.1
L 210.5 201.3
Q 208.25 198.25 206.45 196.1 205.1 194.6 203.7 193.75 202.75 193.05 202.15 192.9 200.5 191.95 198.8 193.1 197.2 193.95 196.35 195.3 195.15 197 194.7 199 194.15 200.5 194.15 202.1 193.95 202.75 194.05 203.45 193.9 209.8 199.2 214 200.75 215.3 202.45 216.2 205 217.85 208.15 218.75 210.25 219.15 212.65 219.8 214.6 219.95 217.3 220.35 219.3 220.45 220.3 220.6 220.1 225.85 219.9 236.15
L 230.2 236.95
Q 230.8 228.3 231.45 221.3 233.3 221.8 235.5 221.8 236.6 221.95 237.7 221.9 240.25 221.6 242.75 221.8 244.35 221.15 245.8 220.8 248.85 219.35 251.7 217.1 254.6 214.45 256.8 211 259.2 205.75 259.2 200.4 259.2 197.75 258.75 195.55 258.45 193.1 257.8 191.45 255.7 185.25 250.05 181.1
L 245.85 178.8
Q 243.2 177.35 240.9 176.75 239.2 176 237.35 175.7 235.2 175.35 233.15 175.4 233.15 170.75 233.4 164.9 235.7 164.75 238.05 166 239.75 166.85 241.05 168.15 241.85 168.95 243.2 170.55 244.7 172.85 247.3 175.7 249.95 178.1 252.85 178.7 254.35 178.75 255.7 177.75
L 256.95 175.65
Q 257.7 173.4 257.7 170.65 257.3 168.15 256.45 166.15 254.15 160.8 249.6 157.25 247.3 155.7 244.9 155.1 241.1 154.3 238.9 154 236.35 153.5 234 153.5 234 148.9 234.25 143.4
M 218.65 165.2
Q 219.5 164.6 220.45 164.75 222.15 164.2 224.1 164.4 223.6 170.25 223.45 174.4 222.45 174.35 221.7 174.4 219.1 174.25 217.65 172.6 215.95 170.85 216.4 168.75 216.7 166.4 218.65 165.2
M 232.25 196.35
Q 235 196.3 237.3 197.55 240.15 199.35 240.15 202.65 239.85 205.2 237.6 206.85 236.4 207.55 234.9 207.75 233.55 207.8 231.7 207.7 232 200.25 232.25 196.35 Z"/>
</g>

<g id="Layer0_1_MEMBER_0_MEMBER_2_MEMBER_0_MEMBER_0_MEMBER_0_MEMBER_0_MEMBER_0_MEMBER_0_MEMBER_0_MEMBER_0_FILL">
<path fill="#E1BB8F" stroke="none" d="
M 416.95 279.25
Q 417.1 278.95 407.6 270.8
L 369.35 270.8 362.9 279.25 416.95 279.25 Z"/>
</g>

<g id="Layer0_1_MEMBER_0_MEMBER_2_MEMBER_0_MEMBER_0_MEMBER_0_MEMBER_0_MEMBER_0_MEMBER_0_MEMBER_0_MEMBER_1_FILL">
<path fill="#B3A8A4" stroke="none" d="
M 370.45 304.2
L 362.45 309.55 362.45 413.75 370.45 413.75 370.45 304.2 Z"/>
</g>

<g id="Layer0_1_MEMBER_0_MEMBER_2_MEMBER_0_MEMBER_0_MEMBER_0_MEMBER_0_MEMBER_0_MEMBER_0_MEMBER_0_MEMBER_2_FILL">
<path fill="#C8BCB7" stroke="none" d="
M 404.85 304.2
L 370.45 304.2 370.45 413.75 404.85 413.75 404.85 304.2 Z"/>
</g>

<g id="Layer0_1_MEMBER_0_MEMBER_2_MEMBER_0_MEMBER_0_MEMBER_0_MEMBER_0_MEMBER_0_MEMBER_0_MEMBER_0_MEMBER_3_FILL">
<path fill="#303030" stroke="none" d="
M 404.85 304.2
L 404.85 309.7 414.95 302.95 364.15 302.95 352.35 310.9 362.45 310.9 362.45 309.55 370.45 304.2 404.85 304.2
M 362.9 279.25
L 350.25 287.75 362.45 287.75 362.45 286.2 370.45 280.8 404.85 280.8 404.85 287.4 416.95 279.25 362.9 279.25 Z"/>
</g>

<g id="Layer0_1_MEMBER_0_MEMBER_2_MEMBER_0_MEMBER_0_MEMBER_0_MEMBER_0_MEMBER_0_MEMBER_0_MEMBER_0_MEMBER_4_FILL">
<path fill="#000102" stroke="none" d="
M 366.55 287.8
L 366.55 291.85 369.1 291.85 369.1 286.25 366.55 287.8
M 363.65 289.55
L 363.65 292.2 364.15 291.85 366.3 291.85 366.3 287.95 363.65 289.55 Z"/>
</g>

<g id="Layer0_1_MEMBER_0_MEMBER_2_MEMBER_0_MEMBER_0_MEMBER_0_MEMBER_0_MEMBER_0_MEMBER_0_MEMBER_0_MEMBER_5_FILL">
<path fill="#7C7C7C" stroke="none" d="
M 404.85 291.85
L 404.85 280.8 370.45 280.8 370.45 291.85 374 291.85 374 284.9 401 284.9 401 291.85 404.85 291.85 Z"/>
</g>

<g id="Layer0_1_MEMBER_0_MEMBER_2_MEMBER_0_MEMBER_0_MEMBER_0_MEMBER_0_MEMBER_0_MEMBER_0_MEMBER_0_MEMBER_6_FILL">
<path fill="#001B37" stroke="none" d="
M 388.2 291.85
L 399.9 291.85 399.9 286.05 388.2 286.05 388.2 291.85
M 387.15 286.05
L 375.05 286.05 375.05 291.85 387.15 291.85 387.15 286.05 Z"/>
</g>

<g id="Layer0_1_MEMBER_0_MEMBER_2_MEMBER_0_MEMBER_0_MEMBER_0_MEMBER_0_MEMBER_0_MEMBER_0_MEMBER_0_MEMBER_7_FILL">
<path fill="#B1A8A0" stroke="none" d="
M 375.05 291.85
L 375.05 286.05 387.15 286.05 387.15 291.85 388.2 291.85 388.2 286.05 399.9 286.05 399.9 291.85 401 291.85 401 284.9 374 284.9 374 291.85 375.05 291.85 Z"/>
</g>

<g id="Layer0_1_MEMBER_0_MEMBER_2_MEMBER_0_MEMBER_0_MEMBER_0_MEMBER_0_MEMBER_0_MEMBER_0_MEMBER_0_MEMBER_8_FILL">
<path fill="#CCA881" stroke="none" d="
M 350.25 287.75
L 362.9 279.25 369.35 270.8 361.25 276.1
Q 350.55 287.2 350.25 287.75 Z"/>
</g>

<g id="Layer0_1_MEMBER_0_MEMBER_2_MEMBER_0_MEMBER_0_MEMBER_0_MEMBER_0_MEMBER_0_MEMBER_0_MEMBER_0_MEMBER_9_FILL">
<path fill="#C0B3AF" stroke="none" d="
M 352.35 299.8
L 352.35 310.9 364.15 302.95 364.15 291.85 352.35 299.8 Z"/>
</g>

<g id="Layer0_1_MEMBER_0_MEMBER_2_MEMBER_0_MEMBER_0_MEMBER_0_MEMBER_0_MEMBER_0_MEMBER_0_MEMBER_0_MEMBER_10_FILL">
<path fill="#A69F96" stroke="none" d="
M 363.65 292.2
L 363.65 289.55 366.3 287.95 366.3 291.85 366.55 291.85 366.55 287.8 369.1 286.25 369.1 291.85 369.35 291.85 369.35 285 363.4 288.55 363.4 292.35 363.65 292.2 Z"/>
</g>

<g id="Layer0_1_MEMBER_0_MEMBER_2_MEMBER_0_MEMBER_0_MEMBER_0_MEMBER_0_MEMBER_0_MEMBER_0_MEMBER_0_MEMBER_11_FILL">
<path fill="#D9CBC6" stroke="none" d="
M 364.15 291.85
L 364.15 302.95 414.95 302.95 414.95 291.85 364.15 291.85 Z"/>
</g>

<g id="Layer0_1_MEMBER_0_MEMBER_2_MEMBER_0_MEMBER_0_MEMBER_0_MEMBER_0_MEMBER_0_MEMBER_0_MEMBER_0_MEMBER_12_FILL">
<path fill="#5F5F5F" stroke="none" d="
M 362.45 293
L 363.4 292.35 363.4 288.55 369.35 285 369.35 291.85 370.45 291.85 370.45 280.8 362.45 286.2 362.45 293 Z"/>
</g>

<g id="Layer0_1_MEMBER_0_MEMBER_2_MEMBER_0_MEMBER_0_MEMBER_0_MEMBER_0_MEMBER_1_MEMBER_0_MEMBER_0_MEMBER_0_FILL">
<path fill="#E1BB8F" stroke="none" d="
M 95.55 279.25
L 89.1 270.8 50.85 270.8
Q 41.35 278.95 41.5 279.25
L 95.55 279.25 Z"/>
</g>

<g id="Layer0_1_MEMBER_0_MEMBER_2_MEMBER_0_MEMBER_0_MEMBER_0_MEMBER_0_MEMBER_1_MEMBER_0_MEMBER_0_MEMBER_1_FILL">
<path fill="#B3A8A4" stroke="none" d="
M 96 309.55
L 88 304.2 88 413.75 96 413.75 96 309.55 Z"/>
</g>

<g id="Layer0_1_MEMBER_0_MEMBER_2_MEMBER_0_MEMBER_0_MEMBER_0_MEMBER_0_MEMBER_1_MEMBER_0_MEMBER_0_MEMBER_2_FILL">
<path fill="#C8BCB7" stroke="none" d="
M 88 304.2
L 53.6 304.2 53.6 413.75 88 413.75 88 304.2 Z"/>
</g>

<g id="Layer0_1_MEMBER_0_MEMBER_2_MEMBER_0_MEMBER_0_MEMBER_0_MEMBER_0_MEMBER_1_MEMBER_0_MEMBER_0_MEMBER_3_FILL">
<path fill="#303030" stroke="none" d="
M 53.6 309.7
L 53.6 304.2 88 304.2 96 309.55 96 310.9 106.1 310.9 94.3 302.95 43.5 302.95 53.6 309.7
M 88 280.8
L 96 286.2 96 287.75 108.2 287.75 95.55 279.25 41.5 279.25 53.6 287.4 53.6 280.8 88 280.8 Z"/>
</g>

<g id="Layer0_1_MEMBER_0_MEMBER_2_MEMBER_0_MEMBER_0_MEMBER_0_MEMBER_0_MEMBER_1_MEMBER_0_MEMBER_0_MEMBER_4_FILL">
<path fill="#000102" stroke="none" d="
M 92.15 287.95
L 92.15 291.85 94.3 291.85 94.8 292.2 94.8 289.55 92.15 287.95
M 89.35 286.25
L 89.35 291.85 91.9 291.85 91.9 287.8 89.35 286.25 Z"/>
</g>

<g id="Layer0_1_MEMBER_0_MEMBER_2_MEMBER_0_MEMBER_0_MEMBER_0_MEMBER_0_MEMBER_1_MEMBER_0_MEMBER_0_MEMBER_5_FILL">
<path fill="#7C7C7C" stroke="none" d="
M 88 291.85
L 88 280.8 53.6 280.8 53.6 291.85 57.45 291.85 57.45 284.9 84.45 284.9 84.45 291.85 88 291.85 Z"/>
</g>

<g id="Layer0_1_MEMBER_0_MEMBER_2_MEMBER_0_MEMBER_0_MEMBER_0_MEMBER_0_MEMBER_1_MEMBER_0_MEMBER_0_MEMBER_6_FILL">
<path fill="#001B37" stroke="none" d="
M 58.55 291.85
L 70.25 291.85 70.25 286.05 58.55 286.05 58.55 291.85
M 83.4 291.85
L 83.4 286.05 71.3 286.05 71.3 291.85 83.4 291.85 Z"/>
</g>

<g id="Layer0_1_MEMBER_0_MEMBER_2_MEMBER_0_MEMBER_0_MEMBER_0_MEMBER_0_MEMBER_1_MEMBER_0_MEMBER_0_MEMBER_7_FILL">
<path fill="#B1A8A0" stroke="none" d="
M 84.45 291.85
L 84.45 284.9 57.45 284.9 57.45 291.85 58.55 291.85 58.55 286.05 70.25 286.05 70.25 291.85 71.3 291.85 71.3 286.05 83.4 286.05 83.4 291.85 84.45 291.85 Z"/>
</g>

<g id="Layer0_1_MEMBER_0_MEMBER_2_MEMBER_0_MEMBER_0_MEMBER_0_MEMBER_0_MEMBER_1_MEMBER_0_MEMBER_0_MEMBER_8_FILL">
<path fill="#CCA881" stroke="none" d="
M 89.1 270.8
L 95.55 279.25 108.2 287.75
Q 107.9 287.2 97.2 276.1
L 89.1 270.8 Z"/>
</g>

<g id="Layer0_1_MEMBER_0_MEMBER_2_MEMBER_0_MEMBER_0_MEMBER_0_MEMBER_0_MEMBER_1_MEMBER_0_MEMBER_0_MEMBER_9_FILL">
<path fill="#C0B3AF" stroke="none" d="
M 106.1 310.9
L 106.1 299.8 94.3 291.85 94.3 302.95 106.1 310.9 Z"/>
</g>

<g id="Layer0_1_MEMBER_0_MEMBER_2_MEMBER_0_MEMBER_0_MEMBER_0_MEMBER_0_MEMBER_1_MEMBER_0_MEMBER_0_MEMBER_10_FILL">
<path fill="#A69F96" stroke="none" d="
M 89.35 291.85
L 89.35 286.25 91.9 287.8 91.9 291.85 92.15 291.85 92.15 287.95 94.8 289.55 94.8 292.2 95.05 292.35 95.05 288.55 89.1 285 89.1 291.85 89.35 291.85 Z"/>
</g>

<g id="Layer0_1_MEMBER_0_MEMBER_2_MEMBER_0_MEMBER_0_MEMBER_0_MEMBER_0_MEMBER_1_MEMBER_0_MEMBER_0_MEMBER_11_FILL">
<path fill="#D9CBC6" stroke="none" d="
M 94.3 302.95
L 94.3 291.85 43.5 291.85 43.5 302.95 94.3 302.95 Z"/>
</g>

<g id="Layer0_1_MEMBER_0_MEMBER_2_MEMBER_0_MEMBER_0_MEMBER_0_MEMBER_0_MEMBER_1_MEMBER_0_MEMBER_0_MEMBER_12_FILL">
<path fill="#5F5F5F" stroke="none" d="
M 95.05 292.35
L 96 293 96 286.2 88 280.8 88 291.85 89.1 291.85 89.1 285 95.05 288.55 95.05 292.35 Z"/>
</g>

<g id="Layer0_1_MEMBER_0_MEMBER_2_MEMBER_0_MEMBER_0_MEMBER_1_MEMBER_0_MEMBER_0_MEMBER_0_FILL">
<path fill="#C2B5B0" stroke="none" d="
M 135.75 348.75
L 135.75 364.6 322.6 364.6 322.6 348.75 318.55 344.35 318.55 276.6 139.8 276.6 139.8 344.35 135.75 348.75 Z"/>
</g>

<g id="Layer0_1_MEMBER_0_MEMBER_2_MEMBER_0_MEMBER_0_MEMBER_1_MEMBER_0_MEMBER_0_MEMBER_1_FILL">
<path fill="#D9CBC6" stroke="none" d="
M 138.1 267.5
L 138.1 274.85 320.35 274.85 320.35 267.5 138.1 267.5 Z"/>
</g>

<g id="Layer0_1_MEMBER_0_MEMBER_2_MEMBER_0_MEMBER_0_MEMBER_1_MEMBER_0_MEMBER_0_MEMBER_2_FILL">
<path fill="#303030" stroke="none" d="
M 138.1 274.85
L 139.8 276.6 318.55 276.6 320.35 274.85 138.1 274.85 Z"/>
</g>

<g id="Layer0_1_MEMBER_0_MEMBER_2_MEMBER_0_MEMBER_0_MEMBER_2_MEMBER_0_MEMBER_0_MEMBER_0_FILL">
<path fill="#7C7C7C" stroke="none" d="
M 160.7 293.8
L 160.7 280.6 150.05 280.6 150.05 293.8 160.7 293.8 Z"/>
</g>

<g id="Layer0_1_MEMBER_0_MEMBER_2_MEMBER_0_MEMBER_0_MEMBER_3_MEMBER_0_MEMBER_0_MEMBER_0_FILL">
<path fill="#000102" stroke="none" d="
M 152.85 285.65
L 152.85 282.25 151.7 282.25 151.7 285.65 152.85 285.65
M 157.5 289.95
L 156.3 289.95 156.3 293.4 157.5 293.4 157.5 289.95
M 155.95 289.95
L 154.75 289.95 154.75 293.4 155.95 293.4 155.95 289.95
M 154.4 289.95
L 153.2 289.95 153.2 293.4 154.4 293.4 154.4 289.95
M 154.4 285.9
L 153.2 285.9 153.2 289.65 154.4 289.65 154.4 285.9
M 155.95 285.9
L 154.75 285.9 154.75 289.65 155.95 289.65 155.95 285.9
M 159.05 289.95
L 157.85 289.95 157.85 293.4 159.05 293.4 159.05 289.95
M 157.5 289.65
L 157.5 285.9 156.3 285.9 156.3 289.65 157.5 289.65
M 159.05 289.65
L 159.05 285.9 157.85 285.9 157.85 289.65 159.05 289.65
M 151.7 289.95
L 151.7 293.4 152.85 293.4 152.85 289.95 151.7 289.95
M 151.7 285.9
L 151.7 289.65 152.85 289.65 152.85 285.9 151.7 285.9
M 157.5 282.25
L 156.3 282.25 156.3 285.65 157.5 285.65 157.5 282.25
M 155.95 282.25
L 154.75 282.25 154.75 285.65 155.95 285.65 155.95 282.25
M 154.4 282.25
L 153.2 282.25 153.2 285.65 154.4 285.65 154.4 282.25
M 159.05 282.25
L 157.85 282.25 157.85 285.65 159.05 285.65 159.05 282.25 Z"/>
</g>

<g id="Layer0_1_MEMBER_0_MEMBER_2_MEMBER_0_MEMBER_0_MEMBER_4_MEMBER_0_MEMBER_0_MEMBER_0_FILL">
<path fill="#7C7C7C" stroke="none" d="
M 178.95 293.8
L 178.95 280.6 168.35 280.6 168.35 293.8 178.95 293.8 Z"/>
</g>

<g id="Layer0_1_MEMBER_0_MEMBER_2_MEMBER_0_MEMBER_0_MEMBER_5_MEMBER_0_MEMBER_0_MEMBER_0_FILL">
<path fill="#000102" stroke="none" d="
M 172.65 285.65
L 172.65 282.25 171.5 282.25 171.5 285.65 172.65 285.65
M 177.3 293.4
L 177.3 289.95 176.1 289.95 176.1 293.4 177.3 293.4
M 175.75 289.95
L 174.55 289.95 174.55 293.4 175.75 293.4 175.75 289.95
M 175.75 289.65
L 175.75 285.9 174.55 285.9 174.55 289.65 175.75 289.65
M 174.2 289.95
L 173.05 289.95 173.05 293.4 174.2 293.4 174.2 289.95
M 174.2 285.9
L 173.05 285.9 173.05 289.65 174.2 289.65 174.2 285.9
M 177.3 289.65
L 177.3 285.9 176.1 285.9 176.1 289.65 177.3 289.65
M 171.5 289.95
L 171.5 293.4 172.65 293.4 172.65 289.95 171.5 289.95
M 171.15 289.95
L 169.95 289.95 169.95 293.4 171.15 293.4 171.15 289.95
M 171.15 285.9
L 169.95 285.9 169.95 289.65 171.15 289.65 171.15 285.9
M 171.5 285.9
L 171.5 289.65 172.65 289.65 172.65 285.9 171.5 285.9
M 171.15 282.25
L 169.95 282.25 169.95 285.65 171.15 285.65 171.15 282.25
M 175.75 282.25
L 174.55 282.25 174.55 285.65 175.75 285.65 175.75 282.25
M 174.2 282.25
L 173.05 282.25 173.05 285.65 174.2 285.65 174.2 282.25
M 177.3 282.25
L 176.1 282.25 176.1 285.65 177.3 285.65 177.3 282.25 Z"/>
</g>

<g id="Layer0_1_MEMBER_0_MEMBER_2_MEMBER_0_MEMBER_0_MEMBER_6_MEMBER_0_MEMBER_0_MEMBER_0_FILL">
<path fill="#7C7C7C" stroke="none" d="
M 197.6 293.8
L 197.6 280.6 186.95 280.6 186.95 293.8 197.6 293.8 Z"/>
</g>

<g id="Layer0_1_MEMBER_0_MEMBER_2_MEMBER_0_MEMBER_0_MEMBER_7_MEMBER_0_MEMBER_0_MEMBER_0_FILL">
<path fill="#000102" stroke="none" d="
M 192.85 285.65
L 192.85 282.25 191.65 282.25 191.65 285.65 192.85 285.65
M 195.9 289.95
L 194.75 289.95 194.75 293.4 195.9 293.4 195.9 289.95
M 195.9 289.65
L 195.9 285.9 194.75 285.9 194.75 289.65 195.9 289.65
M 194.4 289.95
L 193.2 289.95 193.2 293.4 194.4 293.4 194.4 289.95
M 194.4 285.9
L 193.2 285.9 193.2 289.65 194.4 289.65 194.4 285.9
M 191.65 289.95
L 191.65 293.4 192.85 293.4 192.85 289.95 191.65 289.95
M 191.65 285.9
L 191.65 289.65 192.85 289.65 192.85 285.9 191.65 285.9
M 191.3 289.95
L 190.1 289.95 190.1 293.4 191.3 293.4 191.3 289.95
M 189.75 289.95
L 188.55 289.95 188.55 293.4 189.75 293.4 189.75 289.95
M 189.75 285.9
L 188.55 285.9 188.55 289.65 189.75 289.65 189.75 285.9
M 191.3 285.9
L 190.1 285.9 190.1 289.65 191.3 289.65 191.3 285.9
M 189.75 282.25
L 188.55 282.25 188.55 285.65 189.75 285.65 189.75 282.25
M 191.3 282.25
L 190.1 282.25 190.1 285.65 191.3 285.65 191.3 282.25
M 194.4 282.25
L 193.2 282.25 193.2 285.65 194.4 285.65 194.4 282.25
M 195.9 282.25
L 194.75 282.25 194.75 285.65 195.9 285.65 195.9 282.25 Z"/>
</g>

<g id="Layer0_1_MEMBER_0_MEMBER_2_MEMBER_0_MEMBER_0_MEMBER_8_MEMBER_0_MEMBER_0_MEMBER_0_FILL">
<path fill="#7C7C7C" stroke="none" d="
M 215.85 293.8
L 215.85 280.6 205.25 280.6 205.25 293.8 215.85 293.8 Z"/>
</g>

<g id="Layer0_1_MEMBER_0_MEMBER_2_MEMBER_0_MEMBER_0_MEMBER_9_MEMBER_0_MEMBER_0_MEMBER_0_FILL">
<path fill="#000102" stroke="none" d="
M 212.65 282.25
L 211.45 282.25 211.45 285.65 212.65 285.65 212.65 282.25
M 214.2 289.95
L 213 289.95 213 293.4 214.2 293.4 214.2 289.95
M 214.2 285.9
L 213 285.9 213 289.65 214.2 289.65 214.2 285.9
M 211.45 289.95
L 211.45 293.4 212.65 293.4 212.65 289.95 211.45 289.95
M 208 293.4
L 208 289.95 206.85 289.95 206.85 293.4 208 293.4
M 211.45 285.9
L 211.45 289.65 212.65 289.65 212.65 285.9 211.45 285.9
M 211.1 289.95
L 209.9 289.95 209.9 293.4 211.1 293.4 211.1 289.95
M 208 289.65
L 208 285.9 206.85 285.9 206.85 289.65 208 289.65
M 211.1 289.65
L 211.1 285.9 209.9 285.9 209.9 289.65 211.1 289.65
M 209.55 289.95
L 208.35 289.95 208.35 293.4 209.55 293.4 209.55 289.95
M 209.55 285.9
L 208.35 285.9 208.35 289.65 209.55 289.65 209.55 285.9
M 211.1 282.25
L 209.9 282.25 209.9 285.65 211.1 285.65 211.1 282.25
M 209.55 282.25
L 208.35 282.25 208.35 285.65 209.55 285.65 209.55 282.25
M 208 282.25
L 206.85 282.25 206.85 285.65 208 285.65 208 282.25
M 214.2 282.25
L 213 282.25 213 285.65 214.2 285.65 214.2 282.25 Z"/>
</g>

<g id="Layer0_1_MEMBER_0_MEMBER_2_MEMBER_0_MEMBER_0_MEMBER_10_MEMBER_0_MEMBER_0_MEMBER_0_FILL">
<path fill="#7C7C7C" stroke="none" d="
M 234.45 293.8
L 234.45 280.6 223.85 280.6 223.85 293.8 234.45 293.8 Z"/>
</g>

<g id="Layer0_1_MEMBER_0_MEMBER_2_MEMBER_0_MEMBER_0_MEMBER_11_MEMBER_0_MEMBER_0_MEMBER_0_FILL">
<path fill="#000102" stroke="none" d="
M 228.2 293.4
L 228.2 289.95 227 289.95 227 293.4 228.2 293.4
M 226.65 289.95
L 225.45 289.95 225.45 293.4 226.65 293.4 226.65 289.95
M 226.65 289.65
L 226.65 285.9 225.45 285.9 225.45 289.65 226.65 289.65
M 231.25 289.95
L 230.1 289.95 230.1 293.4 231.25 293.4 231.25 289.95
M 231.25 289.65
L 231.25 285.9 230.1 285.9 230.1 289.65 231.25 289.65
M 228.2 289.65
L 228.2 285.9 227 285.9 227 289.65 228.2 289.65
M 232.8 289.95
L 231.6 289.95 231.6 293.4 232.8 293.4 232.8 289.95
M 229.7 289.95
L 228.55 289.95 228.55 293.4 229.7 293.4 229.7 289.95
M 229.7 285.9
L 228.55 285.9 228.55 289.65 229.7 289.65 229.7 285.9
M 232.8 285.9
L 231.6 285.9 231.6 289.65 232.8 289.65 232.8 285.9
M 231.25 282.25
L 230.1 282.25 230.1 285.65 231.25 285.65 231.25 282.25
M 228.2 282.25
L 227 282.25 227 285.65 228.2 285.65 228.2 282.25
M 226.65 282.25
L 225.45 282.25 225.45 285.65 226.65 285.65 226.65 282.25
M 229.7 282.25
L 228.55 282.25 228.55 285.65 229.7 285.65 229.7 282.25
M 232.8 282.25
L 231.6 282.25 231.6 285.65 232.8 285.65 232.8 282.25 Z"/>
</g>

<g id="Layer0_1_MEMBER_0_MEMBER_2_MEMBER_0_MEMBER_0_MEMBER_12_MEMBER_0_MEMBER_0_MEMBER_0_FILL">
<path fill="#7C7C7C" stroke="none" d="
M 252.8 293.8
L 252.8 280.6 242.2 280.6 242.2 293.8 252.8 293.8 Z"/>
</g>

<g id="Layer0_1_MEMBER_0_MEMBER_2_MEMBER_0_MEMBER_0_MEMBER_13_MEMBER_0_MEMBER_0_MEMBER_0_FILL">
<path fill="#000102" stroke="none" d="
M 246.5 289.95
L 245.35 289.95 245.35 293.4 246.5 293.4 246.5 289.95
M 246.5 289.65
L 246.5 285.9 245.35 285.9 245.35 289.65 246.5 289.65
M 248.05 289.95
L 246.85 289.95 246.85 293.4 248.05 293.4 248.05 289.95
M 245 289.95
L 243.8 289.95 243.8 293.4 245 293.4 245 289.95
M 245 285.9
L 243.8 285.9 243.8 289.65 245 289.65 245 285.9
M 248.05 285.9
L 246.85 285.9 246.85 289.65 248.05 289.65 248.05 285.9
M 251.15 289.95
L 249.95 289.95 249.95 293.4 251.15 293.4 251.15 289.95
M 251.15 289.65
L 251.15 285.9 249.95 285.9 249.95 289.65 251.15 289.65
M 249.6 289.95
L 248.4 289.95 248.4 293.4 249.6 293.4 249.6 289.95
M 249.6 285.9
L 248.4 285.9 248.4 289.65 249.6 289.65 249.6 285.9
M 249.6 282.25
L 248.4 282.25 248.4 285.65 249.6 285.65 249.6 282.25
M 245 282.25
L 243.8 282.25 243.8 285.65 245 285.65 245 282.25
M 248.05 282.25
L 246.85 282.25 246.85 285.65 248.05 285.65 248.05 282.25
M 246.5 282.25
L 245.35 282.25 245.35 285.65 246.5 285.65 246.5 282.25
M 251.15 282.25
L 249.95 282.25 249.95 285.65 251.15 285.65 251.15 282.25 Z"/>
</g>

<g id="Layer0_1_MEMBER_0_MEMBER_2_MEMBER_0_MEMBER_0_MEMBER_14_MEMBER_0_MEMBER_0_MEMBER_0_FILL">
<path fill="#7C7C7C" stroke="none" d="
M 271.35 293.8
L 271.35 280.6 260.75 280.6 260.75 293.8 271.35 293.8 Z"/>
</g>

<g id="Layer0_1_MEMBER_0_MEMBER_2_MEMBER_0_MEMBER_0_MEMBER_15_MEMBER_0_MEMBER_0_MEMBER_0_FILL">
<path fill="#000102" stroke="none" d="
M 266.6 289.95
L 265.4 289.95 265.4 293.4 266.6 293.4 266.6 289.95
M 266.6 289.65
L 266.6 285.9 265.4 285.9 265.4 289.65 266.6 289.65
M 268.15 289.95
L 266.95 289.95 266.95 293.4 268.15 293.4 268.15 289.95
M 265.05 289.95
L 263.9 289.95 263.9 293.4 265.05 293.4 265.05 289.95
M 265.05 285.9
L 263.9 285.9 263.9 289.65 265.05 289.65 265.05 285.9
M 268.15 285.9
L 266.95 285.9 266.95 289.65 268.15 289.65 268.15 285.9
M 269.7 289.95
L 268.5 289.95 268.5 293.4 269.7 293.4 269.7 289.95
M 269.7 289.65
L 269.7 285.9 268.5 285.9 268.5 289.65 269.7 289.65
M 266.6 282.25
L 265.4 282.25 265.4 285.65 266.6 285.65 266.6 282.25
M 268.15 282.25
L 266.95 282.25 266.95 285.65 268.15 285.65 268.15 282.25
M 265.05 282.25
L 263.9 282.25 263.9 285.65 265.05 285.65 265.05 282.25
M 269.7 282.25
L 268.5 282.25 268.5 285.65 269.7 285.65 269.7 282.25
M 262.35 285.9
L 262.35 289.65 263.55 289.65 263.55 285.9 262.35 285.9
M 262.35 289.95
L 262.35 293.4 263.55 293.4 263.55 289.95 262.35 289.95
M 262.35 282.25
L 262.35 285.65 263.55 285.65 263.55 282.25 262.35 282.25 Z"/>
</g>

<g id="Layer0_1_MEMBER_0_MEMBER_2_MEMBER_0_MEMBER_0_MEMBER_16_MEMBER_0_MEMBER_0_MEMBER_0_FILL">
<path fill="#7C7C7C" stroke="none" d="
M 279.1 280.6
L 279.1 293.8 289.7 293.8 289.7 280.6 279.1 280.6 Z"/>
</g>

<g id="Layer0_1_MEMBER_0_MEMBER_2_MEMBER_0_MEMBER_0_MEMBER_17_MEMBER_0_MEMBER_0_MEMBER_0_FILL">
<path fill="#000102" stroke="none" d="
M 286.5 289.95
L 285.3 289.95 285.3 293.4 286.5 293.4 286.5 289.95
M 286.5 289.65
L 286.5 285.9 285.3 285.9 285.3 289.65 286.5 289.65
M 288.05 289.95
L 286.85 289.95 286.85 293.4 288.05 293.4 288.05 289.95
M 284.95 289.95
L 283.75 289.95 283.75 293.4 284.95 293.4 284.95 289.95
M 284.95 285.9
L 283.75 285.9 283.75 289.65 284.95 289.65 284.95 285.9
M 288.05 285.9
L 286.85 285.9 286.85 289.65 288.05 289.65 288.05 285.9
M 286.5 282.25
L 285.3 282.25 285.3 285.65 286.5 285.65 286.5 282.25
M 284.95 282.25
L 283.75 282.25 283.75 285.65 284.95 285.65 284.95 282.25
M 288.05 282.25
L 286.85 282.25 286.85 285.65 288.05 285.65 288.05 282.25
M 281.85 289.95
L 280.7 289.95 280.7 293.4 281.85 293.4 281.85 289.95
M 281.85 289.65
L 281.85 285.9 280.7 285.9 280.7 289.65 281.85 289.65
M 283.4 289.95
L 282.2 289.95 282.2 293.4 283.4 293.4 283.4 289.95
M 283.4 285.9
L 282.2 285.9 282.2 289.65 283.4 289.65 283.4 285.9
M 283.4 282.25
L 282.2 282.25 282.2 285.65 283.4 285.65 283.4 282.25
M 281.85 282.25
L 280.7 282.25 280.7 285.65 281.85 285.65 281.85 282.25 Z"/>
</g>

<g id="Layer0_1_MEMBER_0_MEMBER_2_MEMBER_0_MEMBER_0_MEMBER_18_MEMBER_0_MEMBER_0_MEMBER_0_FILL">
<path fill="#7C7C7C" stroke="none" d="
M 307.95 293.8
L 307.95 280.6 297.35 280.6 297.35 293.8 307.95 293.8 Z"/>
</g>

<g id="Layer0_1_MEMBER_0_MEMBER_2_MEMBER_0_MEMBER_0_MEMBER_19_MEMBER_0_MEMBER_0_MEMBER_0_FILL">
<path fill="#000102" stroke="none" d="
M 306.3 289.95
L 305.1 289.95 305.1 293.4 306.3 293.4 306.3 289.95
M 305.1 285.9
L 305.1 289.65 306.3 289.65 306.3 285.9 305.1 285.9
M 306.3 282.25
L 305.1 282.25 305.1 285.65 306.3 285.65 306.3 282.25
M 303.55 282.25
L 303.55 285.65 304.75 285.65 304.75 282.25 303.55 282.25
M 303.55 289.95
L 303.55 293.4 304.75 293.4 304.75 289.95 303.55 289.95
M 301.65 289.95
L 300.5 289.95 300.5 293.4 301.65 293.4 301.65 289.95
M 303.55 285.9
L 303.55 289.65 304.75 289.65 304.75 285.9 303.55 285.9
M 301.65 289.65
L 301.65 285.9 300.5 285.9 300.5 289.65 301.65 289.65
M 303.2 289.95
L 302.05 289.95 302.05 293.4 303.2 293.4 303.2 289.95
M 300.15 289.95
L 298.95 289.95 298.95 293.4 300.15 293.4 300.15 289.95
M 300.15 285.9
L 298.95 285.9 298.95 289.65 300.15 289.65 300.15 285.9
M 303.2 285.9
L 302.05 285.9 302.05 289.65 303.2 289.65 303.2 285.9
M 303.2 282.25
L 302.05 282.25 302.05 285.65 303.2 285.65 303.2 282.25
M 301.65 282.25
L 300.5 282.25 300.5 285.65 301.65 285.65 301.65 282.25
M 300.15 282.25
L 298.95 282.25 298.95 285.65 300.15 285.65 300.15 282.25 Z"/>
</g>

<g id="Layer0_1_MEMBER_0_MEMBER_2_MEMBER_0_MEMBER_0_MEMBER_20_MEMBER_0_MEMBER_0_MEMBER_0_FILL">
<path fill="#7C7C7C" stroke="none" d="
M 160.7 312.4
L 160.7 299.2 150.05 299.2 150.05 312.4 160.7 312.4 Z"/>
</g>

<g id="Layer0_1_MEMBER_0_MEMBER_2_MEMBER_0_MEMBER_0_MEMBER_21_MEMBER_0_MEMBER_0_MEMBER_0_FILL">
<path fill="#000102" stroke="none" d="
M 152.85 312
L 152.85 308.6 151.7 308.6 151.7 312 152.85 312
M 157.5 308.6
L 156.3 308.6 156.3 312 157.5 312 157.5 308.6
M 157.5 300.85
L 156.3 300.85 156.3 304.3 157.5 304.3 157.5 300.85
M 152.85 304.3
L 152.85 300.85 151.7 300.85 151.7 304.3 152.85 304.3
M 159.05 308.6
L 157.85 308.6 157.85 312 159.05 312 159.05 308.6
M 159.05 308.25
L 159.05 304.5 157.85 304.5 157.85 308.25 159.05 308.25
M 156.3 304.5
L 156.3 308.25 157.5 308.25 157.5 304.5 156.3 304.5
M 152.85 308.25
L 152.85 304.5 151.7 304.5 151.7 308.25 152.85 308.25
M 155.95 308.6
L 154.75 308.6 154.75 312 155.95 312 155.95 308.6
M 154.4 308.6
L 153.2 308.6 153.2 312 154.4 312 154.4 308.6
M 154.4 304.5
L 153.2 304.5 153.2 308.25 154.4 308.25 154.4 304.5
M 155.95 304.5
L 154.75 304.5 154.75 308.25 155.95 308.25 155.95 304.5
M 155.95 300.85
L 154.75 300.85 154.75 304.3 155.95 304.3 155.95 300.85
M 154.4 300.85
L 153.2 300.85 153.2 304.3 154.4 304.3 154.4 300.85
M 159.05 300.85
L 157.85 300.85 157.85 304.3 159.05 304.3 159.05 300.85 Z"/>
</g>

<g id="Layer0_1_MEMBER_0_MEMBER_2_MEMBER_0_MEMBER_0_MEMBER_22_MEMBER_0_MEMBER_0_MEMBER_0_FILL">
<path fill="#7C7C7C" stroke="none" d="
M 178.95 312.4
L 178.95 299.2 168.35 299.2 168.35 312.4 178.95 312.4 Z"/>
</g>

<g id="Layer0_1_MEMBER_0_MEMBER_2_MEMBER_0_MEMBER_0_MEMBER_23_MEMBER_0_MEMBER_0_MEMBER_0_FILL">
<path fill="#000102" stroke="none" d="
M 172.65 312
L 172.65 308.6 171.5 308.6 171.5 312 172.65 312
M 171.15 308.6
L 169.95 308.6 169.95 312 171.15 312 171.15 308.6
M 171.15 308.25
L 171.15 304.5 169.95 304.5 169.95 308.25 171.15 308.25
M 171.15 300.85
L 169.95 300.85 169.95 304.3 171.15 304.3 171.15 300.85
M 177.3 308.6
L 176.1 308.6 176.1 312 177.3 312 177.3 308.6
M 177.3 304.3
L 177.3 300.85 176.1 300.85 176.1 304.3 177.3 304.3
M 172.65 304.3
L 172.65 300.85 171.5 300.85 171.5 304.3 172.65 304.3
M 175.75 308.6
L 174.55 308.6 174.55 312 175.75 312 175.75 308.6
M 175.75 308.25
L 175.75 304.5 174.55 304.5 174.55 308.25 175.75 308.25
M 172.65 308.25
L 172.65 304.5 171.5 304.5 171.5 308.25 172.65 308.25
M 176.1 304.5
L 176.1 308.25 177.3 308.25 177.3 304.5 176.1 304.5
M 174.2 308.6
L 173.05 308.6 173.05 312 174.2 312 174.2 308.6
M 174.2 304.5
L 173.05 304.5 173.05 308.25 174.2 308.25 174.2 304.5
M 174.2 300.85
L 173.05 300.85 173.05 304.3 174.2 304.3 174.2 300.85
M 175.75 300.85
L 174.55 300.85 174.55 304.3 175.75 304.3 175.75 300.85 Z"/>
</g>

<g id="Layer0_1_MEMBER_0_MEMBER_2_MEMBER_0_MEMBER_0_MEMBER_24_MEMBER_0_MEMBER_0_MEMBER_0_FILL">
<path fill="#7C7C7C" stroke="none" d="
M 197.6 312.4
L 197.6 299.2 186.95 299.2 186.95 312.4 197.6 312.4 Z"/>
</g>

<g id="Layer0_1_MEMBER_0_MEMBER_2_MEMBER_0_MEMBER_0_MEMBER_25_MEMBER_0_MEMBER_0_MEMBER_0_FILL">
<path fill="#000102" stroke="none" d="
M 192.85 312
L 192.85 308.6 191.65 308.6 191.65 312 192.85 312
M 191.3 308.6
L 190.1 308.6 190.1 312 191.3 312 191.3 308.6
M 189.75 308.6
L 188.55 308.6 188.55 312 189.75 312 189.75 308.6
M 189.75 304.5
L 188.55 304.5 188.55 308.25 189.75 308.25 189.75 304.5
M 191.3 304.5
L 190.1 304.5 190.1 308.25 191.3 308.25 191.3 304.5
M 191.3 300.85
L 190.1 300.85 190.1 304.3 191.3 304.3 191.3 300.85
M 189.75 300.85
L 188.55 300.85 188.55 304.3 189.75 304.3 189.75 300.85
M 192.85 304.3
L 192.85 300.85 191.65 300.85 191.65 304.3 192.85 304.3
M 195.9 308.6
L 194.75 308.6 194.75 312 195.9 312 195.9 308.6
M 195.9 308.25
L 195.9 304.5 194.75 304.5 194.75 308.25 195.9 308.25
M 192.85 308.25
L 192.85 304.5 191.65 304.5 191.65 308.25 192.85 308.25
M 194.4 308.6
L 193.2 308.6 193.2 312 194.4 312 194.4 308.6
M 194.4 304.5
L 193.2 304.5 193.2 308.25 194.4 308.25 194.4 304.5
M 195.9 300.85
L 194.75 300.85 194.75 304.3 195.9 304.3 195.9 300.85
M 194.4 300.85
L 193.2 300.85 193.2 304.3 194.4 304.3 194.4 300.85 Z"/>
</g>

<g id="Layer0_1_MEMBER_0_MEMBER_2_MEMBER_0_MEMBER_0_MEMBER_26_MEMBER_0_MEMBER_0_MEMBER_0_FILL">
<path fill="#7C7C7C" stroke="none" d="
M 215.85 312.4
L 215.85 299.2 205.25 299.2 205.25 312.4 215.85 312.4 Z"/>
</g>

<g id="Layer0_1_MEMBER_0_MEMBER_2_MEMBER_0_MEMBER_0_MEMBER_27_MEMBER_0_MEMBER_0_MEMBER_0_FILL">
<path fill="#000102" stroke="none" d="
M 212.65 308.6
L 211.45 308.6 211.45 312 212.65 312 212.65 308.6
M 208 308.6
L 206.85 308.6 206.85 312 208 312 208 308.6
M 208 304.3
L 208 300.85 206.85 300.85 206.85 304.3 208 304.3
M 211.1 308.6
L 209.9 308.6 209.9 312 211.1 312 211.1 308.6
M 211.1 308.25
L 211.1 304.5 209.9 304.5 209.9 308.25 211.1 308.25
M 209.55 308.6
L 208.35 308.6 208.35 312 209.55 312 209.55 308.6
M 209.55 304.5
L 208.35 304.5 208.35 308.25 209.55 308.25 209.55 304.5
M 206.85 304.5
L 206.85 308.25 208 308.25 208 304.5 206.85 304.5
M 209.55 300.85
L 208.35 300.85 208.35 304.3 209.55 304.3 209.55 300.85
M 211.1 300.85
L 209.9 300.85 209.9 304.3 211.1 304.3 211.1 300.85
M 212.65 304.3
L 212.65 300.85 211.45 300.85 211.45 304.3 212.65 304.3
M 212.65 308.25
L 212.65 304.5 211.45 304.5 211.45 308.25 212.65 308.25
M 214.2 308.6
L 213 308.6 213 312 214.2 312 214.2 308.6
M 214.2 308.25
L 214.2 304.5 213 304.5 213 308.25 214.2 308.25
M 214.2 300.85
L 213 300.85 213 304.3 214.2 304.3 214.2 300.85 Z"/>
</g>

<g id="Layer0_1_MEMBER_0_MEMBER_2_MEMBER_0_MEMBER_0_MEMBER_28_MEMBER_0_MEMBER_0_MEMBER_0_FILL">
<path fill="#7C7C7C" stroke="none" d="
M 234.45 312.4
L 234.45 299.2 223.85 299.2 223.85 312.4 234.45 312.4 Z"/>
</g>

<g id="Layer0_1_MEMBER_0_MEMBER_2_MEMBER_0_MEMBER_0_MEMBER_29_MEMBER_0_MEMBER_0_MEMBER_0_FILL">
<path fill="#000102" stroke="none" d="
M 228.2 308.6
L 227 308.6 227 312 228.2 312 228.2 308.6
M 228.2 304.3
L 228.2 300.85 227 300.85 227 304.3 228.2 304.3
M 231.25 308.6
L 230.1 308.6 230.1 312 231.25 312 231.25 308.6
M 231.25 308.25
L 231.25 304.5 230.1 304.5 230.1 308.25 231.25 308.25
M 232.8 308.6
L 231.6 308.6 231.6 312 232.8 312 232.8 308.6
M 229.7 308.6
L 228.55 308.6 228.55 312 229.7 312 229.7 308.6
M 229.7 304.5
L 228.55 304.5 228.55 308.25 229.7 308.25 229.7 304.5
M 232.8 304.5
L 231.6 304.5 231.6 308.25 232.8 308.25 232.8 304.5
M 226.65 308.6
L 225.45 308.6 225.45 312 226.65 312 226.65 308.6
M 226.65 308.25
L 226.65 304.5 225.45 304.5 225.45 308.25 226.65 308.25
M 227 304.5
L 227 308.25 228.2 308.25 228.2 304.5 227 304.5
M 226.65 300.85
L 225.45 300.85 225.45 304.3 226.65 304.3 226.65 300.85
M 229.7 300.85
L 228.55 300.85 228.55 304.3 229.7 304.3 229.7 300.85
M 232.8 300.85
L 231.6 300.85 231.6 304.3 232.8 304.3 232.8 300.85
M 231.25 300.85
L 230.1 300.85 230.1 304.3 231.25 304.3 231.25 300.85 Z"/>
</g>

<g id="Layer0_1_MEMBER_0_MEMBER_2_MEMBER_0_MEMBER_0_MEMBER_30_MEMBER_0_MEMBER_0_MEMBER_0_FILL">
<path fill="#7C7C7C" stroke="none" d="
M 242.2 299.2
L 242.2 312.4 252.8 312.4 252.8 299.2 242.2 299.2 Z"/>
</g>

<g id="Layer0_1_MEMBER_0_MEMBER_2_MEMBER_0_MEMBER_0_MEMBER_31_MEMBER_0_MEMBER_0_MEMBER_0_FILL">
<path fill="#000102" stroke="none" d="
M 251.15 308.6
L 249.95 308.6 249.95 312 251.15 312 251.15 308.6
M 251.15 308.25
L 251.15 304.5 249.95 304.5 249.95 308.25 251.15 308.25
M 249.6 308.6
L 248.4 308.6 248.4 312 249.6 312 249.6 308.6
M 249.6 304.5
L 248.4 304.5 248.4 308.25 249.6 308.25 249.6 304.5
M 246.5 308.6
L 245.35 308.6 245.35 312 246.5 312 246.5 308.6
M 246.5 308.25
L 246.5 304.5 245.35 304.5 245.35 308.25 246.5 308.25
M 248.05 308.6
L 246.85 308.6 246.85 312 248.05 312 248.05 308.6
M 245 308.6
L 243.8 308.6 243.8 312 245 312 245 308.6
M 245 304.5
L 243.8 304.5 243.8 308.25 245 308.25 245 304.5
M 248.05 304.5
L 246.85 304.5 246.85 308.25 248.05 308.25 248.05 304.5
M 248.05 300.85
L 246.85 300.85 246.85 304.3 248.05 304.3 248.05 300.85
M 245 300.85
L 243.8 300.85 243.8 304.3 245 304.3 245 300.85
M 246.5 300.85
L 245.35 300.85 245.35 304.3 246.5 304.3 246.5 300.85
M 251.15 300.85
L 249.95 300.85 249.95 304.3 251.15 304.3 251.15 300.85
M 249.6 300.85
L 248.4 300.85 248.4 304.3 249.6 304.3 249.6 300.85 Z"/>
</g>

<g id="Layer0_1_MEMBER_0_MEMBER_2_MEMBER_0_MEMBER_0_MEMBER_32_MEMBER_0_MEMBER_0_MEMBER_0_FILL">
<path fill="#7C7C7C" stroke="none" d="
M 271.35 312.4
L 271.35 299.2 260.75 299.2 260.75 312.4 271.35 312.4 Z"/>
</g>

<g id="Layer0_1_MEMBER_0_MEMBER_2_MEMBER_0_MEMBER_0_MEMBER_33_MEMBER_0_MEMBER_0_MEMBER_0_FILL">
<path fill="#000102" stroke="none" d="
M 263.55 312
L 263.55 308.6 262.35 308.6 262.35 312 263.55 312
M 263.55 304.3
L 263.55 300.85 262.35 300.85 262.35 304.3 263.55 304.3
M 269.7 308.6
L 268.5 308.6 268.5 312 269.7 312 269.7 308.6
M 269.7 308.25
L 269.7 304.5 268.5 304.5 268.5 308.25 269.7 308.25
M 266.6 308.6
L 265.4 308.6 265.4 312 266.6 312 266.6 308.6
M 263.55 308.25
L 263.55 304.5 262.35 304.5 262.35 308.25 263.55 308.25
M 266.6 308.25
L 266.6 304.5 265.4 304.5 265.4 308.25 266.6 308.25
M 268.15 308.6
L 266.95 308.6 266.95 312 268.15 312 268.15 308.6
M 265.05 308.6
L 263.9 308.6 263.9 312 265.05 312 265.05 308.6
M 265.05 304.5
L 263.9 304.5 263.9 308.25 265.05 308.25 265.05 304.5
M 268.15 304.5
L 266.95 304.5 266.95 308.25 268.15 308.25 268.15 304.5
M 265.05 300.85
L 263.9 300.85 263.9 304.3 265.05 304.3 265.05 300.85
M 268.15 300.85
L 266.95 300.85 266.95 304.3 268.15 304.3 268.15 300.85
M 266.6 300.85
L 265.4 300.85 265.4 304.3 266.6 304.3 266.6 300.85
M 269.7 300.85
L 268.5 300.85 268.5 304.3 269.7 304.3 269.7 300.85 Z"/>
</g>

<g id="Layer0_1_MEMBER_0_MEMBER_2_MEMBER_0_MEMBER_0_MEMBER_34_MEMBER_0_MEMBER_0_MEMBER_0_FILL">
<path fill="#7C7C7C" stroke="none" d="
M 289.7 312.4
L 289.7 299.2 279.1 299.2 279.1 312.4 289.7 312.4 Z"/>
</g>

<g id="Layer0_1_MEMBER_0_MEMBER_2_MEMBER_0_MEMBER_0_MEMBER_35_MEMBER_0_MEMBER_0_MEMBER_0_FILL">
<path fill="#000102" stroke="none" d="
M 281.85 308.6
L 280.7 308.6 280.7 312 281.85 312 281.85 308.6
M 281.85 308.25
L 281.85 304.5 280.7 304.5 280.7 308.25 281.85 308.25
M 283.4 308.6
L 282.2 308.6 282.2 312 283.4 312 283.4 308.6
M 283.4 304.5
L 282.2 304.5 282.2 308.25 283.4 308.25 283.4 304.5
M 281.85 300.85
L 280.7 300.85 280.7 304.3 281.85 304.3 281.85 300.85
M 283.4 300.85
L 282.2 300.85 282.2 304.3 283.4 304.3 283.4 300.85
M 286.5 308.6
L 285.3 308.6 285.3 312 286.5 312 286.5 308.6
M 286.5 308.25
L 286.5 304.5 285.3 304.5 285.3 308.25 286.5 308.25
M 288.05 308.6
L 286.85 308.6 286.85 312 288.05 312 288.05 308.6
M 284.95 308.6
L 283.75 308.6 283.75 312 284.95 312 284.95 308.6
M 284.95 304.5
L 283.75 304.5 283.75 308.25 284.95 308.25 284.95 304.5
M 288.05 304.5
L 286.85 304.5 286.85 308.25 288.05 308.25 288.05 304.5
M 284.95 300.85
L 283.75 300.85 283.75 304.3 284.95 304.3 284.95 300.85
M 288.05 300.85
L 286.85 300.85 286.85 304.3 288.05 304.3 288.05 300.85
M 286.5 300.85
L 285.3 300.85 285.3 304.3 286.5 304.3 286.5 300.85 Z"/>
</g>

<g id="Layer0_1_MEMBER_0_MEMBER_2_MEMBER_0_MEMBER_0_MEMBER_36_MEMBER_0_MEMBER_0_MEMBER_0_FILL">
<path fill="#7C7C7C" stroke="none" d="
M 307.95 312.4
L 307.95 299.2 297.35 299.2 297.35 312.4 307.95 312.4 Z"/>
</g>

<g id="Layer0_1_MEMBER_0_MEMBER_2_MEMBER_0_MEMBER_0_MEMBER_37_MEMBER_0_MEMBER_0_MEMBER_0_FILL">
<path fill="#000102" stroke="none" d="
M 301.65 308.6
L 300.5 308.6 300.5 312 301.65 312 301.65 308.6
M 301.65 308.25
L 301.65 304.5 300.5 304.5 300.5 308.25 301.65 308.25
M 303.2 308.6
L 302.05 308.6 302.05 312 303.2 312 303.2 308.6
M 300.15 308.6
L 298.95 308.6 298.95 312 300.15 312 300.15 308.6
M 300.15 304.5
L 298.95 304.5 298.95 308.25 300.15 308.25 300.15 304.5
M 303.2 304.5
L 302.05 304.5 302.05 308.25 303.2 308.25 303.2 304.5
M 303.2 300.85
L 302.05 300.85 302.05 304.3 303.2 304.3 303.2 300.85
M 300.15 300.85
L 298.95 300.85 298.95 304.3 300.15 304.3 300.15 300.85
M 301.65 300.85
L 300.5 300.85 300.5 304.3 301.65 304.3 301.65 300.85
M 304.75 312
L 304.75 308.6 303.55 308.6 303.55 312 304.75 312
M 304.75 304.3
L 304.75 300.85 303.55 300.85 303.55 304.3 304.75 304.3
M 306.3 308.6
L 305.1 308.6 305.1 312 306.3 312 306.3 308.6
M 304.75 308.25
L 304.75 304.5 303.55 304.5 303.55 308.25 304.75 308.25
M 306.3 308.25
L 306.3 304.5 305.1 304.5 305.1 308.25 306.3 308.25
M 306.3 300.85
L 305.1 300.85 305.1 304.3 306.3 304.3 306.3 300.85 Z"/>
</g>

<g id="Layer0_1_MEMBER_0_MEMBER_2_MEMBER_0_MEMBER_0_MEMBER_38_MEMBER_0_MEMBER_0_MEMBER_0_FILL">
<path fill="#E1BB8F" stroke="none" d="
M 328.7 256.25
L 396.05 256.25
Q 396.25 255.85 384.4 245.7
L 336.8 245.7 328.7 256.25 Z"/>
</g>

<g id="Layer0_1_MEMBER_0_MEMBER_2_MEMBER_0_MEMBER_0_MEMBER_38_MEMBER_0_MEMBER_0_MEMBER_1_FILL">
<path fill="#B3A8A4" stroke="none" d="
M 338.15 287.25
L 328.2 293.95 328.2 423.75 338.15 423.75 338.15 287.25 Z"/>
</g>

<g id="Layer0_1_MEMBER_0_MEMBER_2_MEMBER_0_MEMBER_0_MEMBER_38_MEMBER_0_MEMBER_0_MEMBER_2_FILL">
<path fill="#C8BCB7" stroke="none" d="
M 380.95 287.25
L 338.15 287.25 338.15 423.75 380.95 423.75 380.95 287.25 Z"/>
</g>

<g id="Layer0_1_MEMBER_0_MEMBER_2_MEMBER_0_MEMBER_0_MEMBER_38_MEMBER_0_MEMBER_0_MEMBER_3_FILL">
<path fill="#303030" stroke="none" d="
M 328.2 295.65
L 328.2 293.95 338.15 287.25 380.95 287.25 380.95 294.15 393.55 285.75 330.3 285.75 315.6 295.65 328.2 295.65
M 328.2 264.85
L 338.15 258.15 380.95 258.15 380.95 266.4 396.05 256.25 328.7 256.25 313 266.8 328.2 266.8 328.2 264.85 Z"/>
</g>

<g id="Layer0_1_MEMBER_0_MEMBER_2_MEMBER_0_MEMBER_0_MEMBER_38_MEMBER_0_MEMBER_0_MEMBER_4_FILL">
<path fill="#000102" stroke="none" d="
M 336.5 264.95
L 333.3 266.85 333.3 271.9 336.5 271.9 336.5 264.95
M 330.3 271.9
L 333 271.9 333 267.05 329.65 269.05 329.65 272.3 330.3 271.9 Z"/>
</g>

<g id="Layer0_1_MEMBER_0_MEMBER_2_MEMBER_0_MEMBER_0_MEMBER_38_MEMBER_0_MEMBER_0_MEMBER_5_FILL">
<path fill="#7C7C7C" stroke="none" d="
M 338.15 258.15
L 338.15 271.9 342.55 271.9 342.55 263.25 376.15 263.25 376.15 271.9 380.95 271.9 380.95 258.15 338.15 258.15 Z"/>
</g>

<g id="Layer0_1_MEMBER_0_MEMBER_2_MEMBER_0_MEMBER_0_MEMBER_38_MEMBER_0_MEMBER_0_MEMBER_6_FILL">
<path fill="#001B37" stroke="none" d="
M 360.25 264.65
L 360.25 271.9 374.8 271.9 374.8 264.65 360.25 264.65
M 358.95 264.65
L 343.85 264.65 343.85 271.9 358.95 271.9 358.95 264.65 Z"/>
</g>

<g id="Layer0_1_MEMBER_0_MEMBER_2_MEMBER_0_MEMBER_0_MEMBER_38_MEMBER_0_MEMBER_0_MEMBER_7_FILL">
<path fill="#B1A8A0" stroke="none" d="
M 358.95 271.9
L 360.25 271.9 360.25 264.65 374.8 264.65 374.8 271.9 376.15 271.9 376.15 263.25 342.55 263.25 342.55 271.9 343.85 271.9 343.85 264.65 358.95 264.65 358.95 271.9 Z"/>
</g>

<g id="Layer0_1_MEMBER_0_MEMBER_2_MEMBER_0_MEMBER_0_MEMBER_38_MEMBER_0_MEMBER_0_MEMBER_8_FILL">
<path fill="#CCA881" stroke="none" d="
M 328.7 256.25
L 336.8 245.7 326.7 252.3
Q 313.25 266.1 313 266.8
L 328.7 256.25 Z"/>
</g>

<g id="Layer0_1_MEMBER_0_MEMBER_2_MEMBER_0_MEMBER_0_MEMBER_38_MEMBER_0_MEMBER_0_MEMBER_9_FILL">
<path fill="#C0B3AF" stroke="none" d="
M 330.3 285.75
L 330.3 271.9 329.65 272.3 329.35 272.55 315.6 281.8 315.6 295.65 330.3 285.75 Z"/>
</g>

<g id="Layer0_1_MEMBER_0_MEMBER_2_MEMBER_0_MEMBER_0_MEMBER_38_MEMBER_0_MEMBER_0_MEMBER_10_FILL">
<path fill="#A69F96" stroke="none" d="
M 333 271.9
L 333.3 271.9 333.3 266.85 336.5 264.95 336.5 271.9 336.8 271.9 336.8 263.35 329.35 267.8 329.35 272.55 329.65 272.3 329.65 269.05 333 267.05 333 271.9 Z"/>
</g>

<g id="Layer0_1_MEMBER_0_MEMBER_2_MEMBER_0_MEMBER_0_MEMBER_38_MEMBER_0_MEMBER_0_MEMBER_11_FILL">
<path fill="#D9CBC6" stroke="none" d="
M 330.3 271.9
L 330.3 285.75 393.55 285.75 393.55 271.9 330.3 271.9 Z"/>
</g>

<g id="Layer0_1_MEMBER_0_MEMBER_2_MEMBER_0_MEMBER_0_MEMBER_38_MEMBER_0_MEMBER_0_MEMBER_12_FILL">
<path fill="#5F5F5F" stroke="none" d="
M 328.2 273.35
L 329.35 272.55 329.35 267.8 336.8 263.35 336.8 271.9 338.15 271.9 338.15 258.15 328.2 264.85 328.2 273.35 Z"/>
</g>

<g id="Layer0_1_MEMBER_0_MEMBER_2_MEMBER_0_MEMBER_0_MEMBER_39_MEMBER_0_MEMBER_0_MEMBER_0_FILL">
<path fill="#E1BB8F" stroke="none" d="
M 129.5 256.25
L 121.45 245.7 73.85 245.7
Q 61.95 255.8 62.2 256.25
L 129.5 256.25 Z"/>
</g>

<g id="Layer0_1_MEMBER_0_MEMBER_2_MEMBER_0_MEMBER_0_MEMBER_39_MEMBER_0_MEMBER_0_MEMBER_1_FILL">
<path fill="#B3A8A4" stroke="none" d="
M 130.05 293.95
L 120.1 287.25 120.1 423.75 130.05 423.75 130.05 293.95 Z"/>
</g>

<g id="Layer0_1_MEMBER_0_MEMBER_2_MEMBER_0_MEMBER_0_MEMBER_39_MEMBER_0_MEMBER_0_MEMBER_2_FILL">
<path fill="#C8BCB7" stroke="none" d="
M 120.1 287.25
L 77.25 287.25 77.25 423.75 120.1 423.75 120.1 287.25 Z"/>
</g>

<g id="Layer0_1_MEMBER_0_MEMBER_2_MEMBER_0_MEMBER_0_MEMBER_39_MEMBER_0_MEMBER_0_MEMBER_3_FILL">
<path fill="#303030" stroke="none" d="
M 142.65 295.65
L 127.9 285.75 64.7 285.75 77.25 294.15 77.25 287.25 120.1 287.25 130.05 293.95 130.05 295.65 142.65 295.65
M 145.25 266.8
L 129.5 256.25 62.2 256.25 77.25 266.4 77.25 258.15 120.1 258.15 130.05 264.85 130.05 266.8 145.25 266.8 Z"/>
</g>

<g id="Layer0_1_MEMBER_0_MEMBER_2_MEMBER_0_MEMBER_0_MEMBER_39_MEMBER_0_MEMBER_0_MEMBER_4_FILL">
<path fill="#000102" stroke="none" d="
M 124.95 266.85
L 121.75 264.95 121.75 271.9 124.95 271.9 124.95 266.85
M 125.25 271.9
L 127.9 271.9 128.55 272.3 128.55 269.05 125.25 267.05 125.25 271.9 Z"/>
</g>

<g id="Layer0_1_MEMBER_0_MEMBER_2_MEMBER_0_MEMBER_0_MEMBER_39_MEMBER_0_MEMBER_0_MEMBER_5_FILL">
<path fill="#7C7C7C" stroke="none" d="
M 120.1 271.9
L 120.1 258.15 77.25 258.15 77.25 271.9 82.05 271.9 82.05 263.25 115.7 263.25 115.7 271.9 120.1 271.9 Z"/>
</g>

<g id="Layer0_1_MEMBER_0_MEMBER_2_MEMBER_0_MEMBER_0_MEMBER_39_MEMBER_0_MEMBER_0_MEMBER_6_FILL">
<path fill="#001B37" stroke="none" d="
M 114.4 264.65
L 99.25 264.65 99.25 271.9 114.4 271.9 114.4 264.65
M 83.45 271.9
L 97.95 271.9 97.95 264.65 83.45 264.65 83.45 271.9 Z"/>
</g>

<g id="Layer0_1_MEMBER_0_MEMBER_2_MEMBER_0_MEMBER_0_MEMBER_39_MEMBER_0_MEMBER_0_MEMBER_7_FILL">
<path fill="#B1A8A0" stroke="none" d="
M 114.4 264.65
L 114.4 271.9 115.7 271.9 115.7 263.25 82.05 263.25 82.05 271.9 83.45 271.9 83.45 264.65 97.95 264.65 97.95 271.9 99.25 271.9 99.25 264.65 114.4 264.65 Z"/>
</g>

<g id="Layer0_1_MEMBER_0_MEMBER_2_MEMBER_0_MEMBER_0_MEMBER_39_MEMBER_0_MEMBER_0_MEMBER_8_FILL">
<path fill="#CCA881" stroke="none" d="
M 145.25 266.8
Q 145.05 266.25 131.55 252.3
L 121.45 245.7 129.5 256.25 145.25 266.8 Z"/>
</g>

<g id="Layer0_1_MEMBER_0_MEMBER_2_MEMBER_0_MEMBER_0_MEMBER_39_MEMBER_0_MEMBER_0_MEMBER_9_FILL">
<path fill="#C0B3AF" stroke="none" d="
M 142.65 281.8
L 128.85 272.55 128.55 272.3 127.9 271.9 127.9 285.75 142.65 295.65 142.65 281.8 Z"/>
</g>

<g id="Layer0_1_MEMBER_0_MEMBER_2_MEMBER_0_MEMBER_0_MEMBER_39_MEMBER_0_MEMBER_0_MEMBER_10_FILL">
<path fill="#A69F96" stroke="none" d="
M 121.45 263.35
L 121.45 271.9 121.75 271.9 121.75 264.95 124.95 266.85 124.95 271.9 125.25 271.9 125.25 267.05 128.55 269.05 128.55 272.3 128.85 272.55 128.85 267.8 121.45 263.35 Z"/>
</g>

<g id="Layer0_1_MEMBER_0_MEMBER_2_MEMBER_0_MEMBER_0_MEMBER_39_MEMBER_0_MEMBER_0_MEMBER_11_FILL">
<path fill="#D9CBC6" stroke="none" d="
M 127.9 285.75
L 127.9 271.9 64.7 271.9 64.7 285.75 127.9 285.75 Z"/>
</g>

<g id="Layer0_1_MEMBER_0_MEMBER_2_MEMBER_0_MEMBER_0_MEMBER_39_MEMBER_0_MEMBER_0_MEMBER_12_FILL">
<path fill="#5F5F5F" stroke="none" d="
M 121.45 271.9
L 121.45 263.35 128.85 267.8 128.85 272.55 130.05 273.35 130.05 264.85 120.1 258.15 120.1 271.9 121.45 271.9 Z"/>
</g>

<g id="Layer0_1_MEMBER_0_MEMBER_2_MEMBER_0_MEMBER_0_MEMBER_40_MEMBER_0_MEMBER_0_MEMBER_0_FILL">
<path fill="#C0B3AF" stroke="none" d="
M 192.6 423.4
L 192.6 404.9 119.95 404.9 119.95 423.4 192.6 423.4
M 265.9 404.9
L 265.9 423.4 338.5 423.4 338.5 404.9 265.9 404.9 Z"/>
</g>

<g id="Layer0_1_MEMBER_0_MEMBER_2_MEMBER_0_MEMBER_0_MEMBER_40_MEMBER_0_MEMBER_0_MEMBER_1_FILL">
<path fill="#941E21" stroke="none" d="
M 262.15 370.5
L 196.45 370.55 196.45 423.4 262.15 423.4 262.15 370.5
M 198.65 394.25
L 198.65 372.95 216.95 372.95 216.95 394.25 198.65 394.25
M 241.45 394.25
L 241.45 372.95 259.8 372.95 259.75 394.25 241.45 394.25
M 238.4 372.95
L 238.4 394.25 220.05 394.25 220.05 372.95 238.4 372.95
M 259.8 399.5
L 259.75 420.8 241.45 420.8 241.45 399.5 259.8 399.5
M 216.95 399.5
L 216.95 420.8 198.65 420.8 198.65 399.5 216.95 399.5
M 238.4 420.8
L 220.05 420.8 220.05 399.5 238.4 399.5 238.4 420.8 Z"/>
</g>

<g id="Layer0_1_MEMBER_0_MEMBER_2_MEMBER_0_MEMBER_0_MEMBER_40_MEMBER_0_MEMBER_0_MEMBER_2_FILL">
<path fill="#791517" stroke="none" d="
M 207.75 410.2
L 216.9 420.8 216.95 420.8 216.95 399.5 207.75 410.2
M 229.2 410.2
L 238.3 420.8 238.4 420.8 238.4 399.5 229.2 410.2
M 259.8 399.5
L 250.6 410.2 259.75 420.8 259.8 399.5
M 259.8 372.95
L 250.6 383.6 259.75 394.25 259.8 372.95
M 216.95 372.95
L 207.75 383.6 216.9 394.25 216.95 394.25 216.95 372.95
M 238.4 372.95
L 229.2 383.6 238.3 394.25 238.4 394.25 238.4 372.95 Z"/>
</g>

<g id="Layer0_1_MEMBER_0_MEMBER_2_MEMBER_0_MEMBER_0_MEMBER_40_MEMBER_0_MEMBER_0_MEMBER_3_FILL">
<path fill="#6D1315" stroke="none" d="
M 216.9 420.8
L 207.75 410.2 198.65 420.8 216.9 420.8
M 220.05 420.8
L 238.3 420.8 229.2 410.2 220.05 420.8
M 259.75 420.8
L 250.6 410.2 241.45 420.8 259.75 420.8
M 259.75 394.25
L 250.6 383.6 241.45 394.25 259.75 394.25
M 216.9 394.25
L 207.75 383.6 198.65 394.25 216.9 394.25
M 220.05 394.25
L 238.3 394.25 229.2 383.6 220.05 394.25 Z"/>
</g>

<g id="Layer0_1_MEMBER_0_MEMBER_2_MEMBER_0_MEMBER_0_MEMBER_40_MEMBER_0_MEMBER_0_MEMBER_4_FILL">
<path fill="#8C1A1C" stroke="none" d="
M 198.65 399.6
L 198.65 420.8 207.75 410.2 198.65 399.6
M 220.05 399.6
L 220.05 420.8 229.2 410.2 220.05 399.6
M 241.45 399.6
L 241.45 420.8 250.6 410.2 241.45 399.6
M 229.2 383.6
L 220.05 373 220.05 394.25 229.2 383.6
M 241.45 373
L 241.45 394.25 250.6 383.6 241.45 373
M 198.65 373
L 198.65 394.25 207.75 383.6 198.65 373 Z"/>
</g>

<g id="Layer0_1_MEMBER_0_MEMBER_2_MEMBER_0_MEMBER_0_MEMBER_40_MEMBER_0_MEMBER_0_MEMBER_5_FILL">
<path fill="#B42327" stroke="none" d="
M 207.75 410.2
L 216.95 399.5 198.65 399.5 198.65 399.6 207.75 410.2
M 238.4 399.5
L 220.05 399.5 220.05 399.6 229.2 410.2 238.4 399.5
M 250.6 410.2
L 259.8 399.5 241.45 399.5 241.45 399.6 250.6 410.2
M 220.05 373
L 229.2 383.6 238.4 372.95 220.05 372.95 220.05 373
M 241.45 372.95
L 241.45 373 250.6 383.6 259.8 372.95 241.45 372.95
M 198.65 372.95
L 198.65 373 207.75 383.6 216.95 372.95 198.65 372.95 Z"/>
</g>

<g id="Layer0_1_MEMBER_0_MEMBER_2_MEMBER_0_MEMBER_0_MEMBER_40_MEMBER_0_MEMBER_0_MEMBER_6_FILL">
<path fill="#D9CBC6" stroke="none" d="
M 192.6 404.9
L 194.2 399.8 124.6 399.8 119.95 404.9 192.6 404.9
M 264.3 399.8
L 265.9 404.9 338.5 404.9 333.8 399.8 264.3 399.8
M 335.9 318.5
L 335.9 309.85 122.6 309.85 122.6 318.5 335.9 318.5 Z"/>
</g>

<g id="Layer0_1_MEMBER_0_MEMBER_2_MEMBER_0_MEMBER_0_MEMBER_40_MEMBER_0_MEMBER_0_MEMBER_7_FILL">
<path fill="#A39894" stroke="none" d="
M 264.3 369.55
L 262.15 370.5 262.15 423.4 265.9 423.4 265.9 404.9 264.3 399.8 264.3 369.55
M 196.45 370.55
L 194.2 369.55 194.2 399.8 192.6 404.9 192.6 423.4 196.45 423.4 196.45 370.55 Z"/>
</g>

<g id="Layer0_1_MEMBER_0_MEMBER_2_MEMBER_0_MEMBER_0_MEMBER_40_MEMBER_0_MEMBER_0_MEMBER_8_FILL">
<path fill="#C8BCB7" stroke="none" d="
M 194.2 369.55
L 264.3 369.55 264.3 399.8 333.8 399.8 333.8 320.5 124.6 320.5 124.6 399.8 194.2 399.8 194.2 369.55 Z"/>
</g>

<g id="Layer0_1_MEMBER_0_MEMBER_2_MEMBER_0_MEMBER_0_MEMBER_40_MEMBER_0_MEMBER_0_MEMBER_9_FILL">
<path fill="#303030" stroke="none" d="
M 194.2 369.55
L 196.45 370.55 262.15 370.5 264.3 369.55 194.2 369.55
M 333.8 320.5
L 335.9 318.5 122.6 318.5 124.6 320.5 333.8 320.5 Z"/>
</g>

<g id="Layer0_1_MEMBER_0_MEMBER_3_MEMBER_0_MEMBER_0_MEMBER_0_MEMBER_0_FILL">
<path fill="#003350" stroke="none" d="
M 184.55 320.6
Q 184.75 317.2 184.7 316 184.7 313.5 184 311.55 183.3 309.55 182.05 308.5 181 307.6 179.65 307.3 178.3 306.95 176.95 307.15 174.3 307.7 172.45 309.9 171.7 310.8 171.4 311.65 171.25 312.5 171.3 313.85 171.3 315.4 171.45 316.05 171.55 317.05 172.05 318.2
L 172.85 319.45
Q 173.4 320.1 173.65 320.65 174 321.5 174.15 322
L 175 324.55
Q 175.2 325.1 175.1 325.75 175.05 326.5 173.8 327.75 173 328.55 171.8 329.6 171.1 330.2 169.65 331.1
L 166.3 332.45
Q 164.45 333.35 163.75 334.55 163.3 335.3 163.15 336.35
L 163.05 338.25
Q 163 343.2 162 347.9 161.75 349.15 161.9 349.65 162.05 350.15 162.65 351.05 163.1 352 163.15 353.6
L 164 370.15
Q 164.45 377.45 164.55 382.7 164.65 386.2 164.55 389.65
L 164.45 406.75
Q 164.45 408 164.9 408.5 165.2 408.8 166.1 409.05
L 166.5 409.15
Q 166.5 412.4 166.75 414.3 167.05 416.65 167.05 417.35
L 166.7 419.55
Q 166.6 420.35 166.75 422.95 166.95 424.85 166.75 426.35
L 166.2 428.55 166.05 429.6
Q 166 430.05 165.8 430.55
L 165.25 431.7
Q 164.85 432.4 165.1 432.85
L 165.45 433.65
Q 165.5 434.05 164.95 434.6 164.15 435.45 164.1 435.5 164 435.6 163.9 436.15
L 163.65 436.75
Q 163.35 437.15 162.65 437.55 162.2 437.95 162.2 439.4 162.35 440.7 162.85 440.9 163.05 441.05 163.65 441.05
L 165.05 441
Q 168.15 441 169.6 440.45 171.25 439.85 171.5 439.85
L 172.85 439.6
Q 173.95 439.25 174.55 437.7
L 175.35 435.2 176.1 433.4
Q 176.25 432.95 176.35 431.05 176.4 429.3 177.05 426.3
L 177.95 421.55
Q 178.2 420.15 178.55 415 178.7 411.65 179.05 408.9
L 181.15 408.7
Q 181.3 410.85 180.45 413.1
L 179.25 415.95
Q 178.8 417.35 178.9 420.3 179 423.65 178.8 424.6 178.75 424.95 178.05 427.55 176.75 432.3 178.55 436.9 178.7 437.3 178.95 437.55 179.45 437.85 180.4 437.7 181.2 437.85 181.8 438.9
L 182.25 439.75
Q 182.45 440.2 182.8 440.55 183.45 441.1 184.5 441.25 184.7 441.3 186.45 441.4
L 187.75 441.5 188.95 441.4
Q 190.4 441.05 190.85 439.85 191.1 439.15 190.95 438.55 190.8 437.95 190.25 437.55
L 189.8 437.1
Q 189.8 436.9 190.1 436.65 190.6 436.25 190.75 435.55 190.95 434.9 190.65 434.35 190.4 433.9 189.6 433.4 188.8 432.9 188.65 432.35 188.5 431.95 188.75 431.3
L 189.3 430.3
Q 190.6 428.35 191.4 425.2 193.35 418 192.75 408.35
L 193.85 408.4
Q 195.1 408.5 195.55 408 196.1 407.6 196.1 406.05
L 195.55 376.1
Q 195.55 371.85 195.85 370.55 196.3 367.5 198.15 365.5
L 199.25 364.45
Q 199.9 363.75 200.1 363.15 200.4 362.4 200.25 361.35
L 199.85 359.45
Q 199.25 357 199.25 353.45 199.35 350.75 199.35 347.4 199.35 344.55 198.75 343.05
L 197.95 341.55
Q 197.4 340.65 197.15 340 196.9 339.3 196.5 336.9 196.2 334.7 195.65 333.8 195.2 332.95 194.2 332 193.5 331.4 192.3 330.6
L 187.45 327.05
Q 185.75 325.75 185.1 324.65 184.4 323.35 184.55 320.6 Z"/>
</g>

<g id="Layer0_1_MEMBER_0_MEMBER_3_MEMBER_1_MEMBER_0_MEMBER_0_MEMBER_0_FILL">
<path fill="#FF5A32" stroke="none" d="
M 183.5 343.1
Q 182.85 342.1 181.9 342.75
L 164.8 353.1
Q 163.8 353.75 164.45 354.7
L 178.6 378.05
Q 179.2 379.05 180.25 378.45
L 197.3 368.05
Q 198.3 367.45 197.7 366.45
L 183.5 343.1 Z"/>
</g>

<g id="Layer0_1_MEMBER_0_MEMBER_3_MEMBER_2_MEMBER_0_MEMBER_0_MEMBER_0_FILL">
<path fill="#003350" stroke="none" d="
M 192.6 356.55
L 192.55 356.05 192.3 355.5 192.15 354.85
Q 191.9 353.55 191.6 353 191.25 352.4 191.05 352.25 190.8 351.95 190.1 351.6 189.45 351.3 189.1 351.5 188.9 351.55 188.7 351.85
L 186.9 354
Q 186.75 354.3 186.85 354.4
L 187.05 354.5
Q 188 354.6 188.35 354.25
L 188.6 353.95
Q 188.8 353.85 189.2 353.85
L 189.85 353.85
Q 189.75 354.15 189.3 354.4
L 188.7 354.9 187.95 355.8
Q 187.65 355.95 187.65 356.05
L 187.55 356.4 187.65 356.8 189.05 357.85 189.7 357.9 190.3 357.85 192 357.25
Q 192.4 357.1 192.5 356.95
L 192.6 356.55 Z"/>
</g>

<g id="Layer0_1_MEMBER_0_MEMBER_3_MEMBER_3_MEMBER_0_MEMBER_0_MEMBER_0_FILL">
<path fill="#003350" stroke="none" d="
M 169.5 360.8
L 168.65 361.5 168.45 361.85
Q 168.4 362.05 168.5 362.25 168.3 362.35 168.3 362.55
L 168.65 363.55 169 363.95 169.3 364.55 169.65 365.05 169.8 365.4 170.6 366.15
Q 170.75 366.3 171.05 366.25 171.2 366.15 171.3 365.9 171.5 365.95 171.65 365.75
L 171.8 365.55 172.25 365.05
Q 173 364.1 173.25 363.1 173.55 362.25 173.45 360.7 173.45 360.2 173.25 360.05 173.1 359.85 172.65 359.85 171.85 359.8 170.15 360.5
L 169.5 360.8 Z"/>
</g>

<g id="Layer0_1_MEMBER_0_MEMBER_3_MEMBER_4_MEMBER_0_MEMBER_0_MEMBER_0_FILL">
<path fill="#003350" stroke="none" d="
M 241.55 301.35
Q 239.7 302.25 238.6 304.15 237.6 306 237.5 308.2 237.5 309.5 238.3 313 239.05 316.1 238.9 317.8 238.85 318.8 238.45 319.4 238.2 320 237 320.85 233.1 323.55 228.35 325.1 226.05 325.8 225.25 326.45 223.75 327.7 223.35 330.4
L 223.25 334.9
Q 223.15 336.2 222.9 337.55
L 222.4 340.2
Q 222.1 341.85 221.8 345.15 221.2 352.35 221.8 356.8 221.85 357.5 222.7 361.8
L 225.25 372.65
Q 225.8 374.6 226 375.95 226.65 379.25 226.8 383.75 226.9 387 226.75 391.65 226.6 396.05 226 398.25 225.7 399.3 226.1 399.7 226.4 400 227.45 399.95
L 227.8 399.95 226.4 407.35
Q 224.7 416.6 224.15 420.7
L 222.85 430.6
Q 222.5 433.5 222.65 435.15 222.75 436 223 436.25 223.3 436.65 223.8 436.95 224.75 437.9 223.7 439.95 223.2 441.1 223.15 441.55 222.95 442.4 223.35 443.05 223.85 443.85 225.75 444 228.3 444.25 229.5 443.8 230.45 443.5 231.1 442.8 231.85 442.05 231.85 441.15 231.7 439.95 231.85 439.35 232.05 438.85 232.45 438.4
L 233.35 437.6
Q 234.45 436.5 234.7 435.45 234.9 434.55 234.75 432.25 234.1 425.25 235.4 415.7 235.85 412.75 238.1 400.35
L 239.15 400.25
Q 240.7 400.25 241.75 400.35
L 241.9 400.35 242.1 403.15
Q 242.2 404.25 242.2 409.05 242.3 412.8 242.7 414.9
L 243.6 418.8
Q 243.8 420 243.8 422.3
L 243.8 425.75
Q 243.95 428.55 244.9 431.15
L 245.6 433.05
Q 245.9 434.25 245.85 435 245.85 435.45 245.55 436.5 245.3 437.6 245.3 438 245.3 438.85 245.65 439.55 246.05 440.3 246.7 440.75 247.6 441.35 250.1 441.6
L 255 441.9
Q 256.15 442 256.6 441.6 257.3 441.15 257.2 439.8 257.15 437.6 256.15 435.4
L 255.7 434.45
Q 255.5 433.65 255.55 433.4
L 255.9 431.7
Q 256 431.2 255.75 430.6
L 255.3 429.55
Q 254.9 428.4 254.8 426.05 254.4 411.5 254.4 399.6
L 254.35 398.95
Q 256.3 398.4 257.3 397.95
L 258.05 397.45
Q 258.65 396.85 258.6 395.8 258.55 395.15 258.15 393.95 257.5 391.85 257.25 389.1 257.15 388 257.15 384.15
L 257.2 366.6
Q 257.2 365.15 257.5 364.55 257.75 364.1 258.75 363.15 260.85 361.25 263.2 358.35 264.1 357.25 264.4 356.4 264.55 355.8 264.55 355
L 264.3 353.5
Q 262.85 345.8 262.85 339.9
L 262.6 335.45
Q 261.7 331.8 257.2 328.55 255.65 327.4 253.85 326.45
L 252.3 325.55
Q 251.55 325.1 251.05 324.4 250.8 324 250.1 322.25 249.6 320.9 248.85 320.35
L 248.4 320.05
Q 248.1 319.85 248 319.7 247.7 319.3 247.95 318.2
L 248.6 315.4
Q 249.3 312.2 249.5 310.7 249.85 308.25 249.6 305.95 249.35 304.25 248.8 303.35 247.8 301.5 245.65 301 243.4 300.4 241.55 301.35 Z"/>
</g>

<g id="Layer0_1_MEMBER_0_MEMBER_3_MEMBER_5_MEMBER_0_MEMBER_0_MEMBER_0_FILL">
<path fill="#004B72" stroke="none" d="
M 146.5 307.05
L 144.75 307.35
Q 142.85 307.9 141.05 309.25 139.3 310.7 138.25 312.35 135.95 315.8 136.2 320.3 136.2 321.3 136.05 321.6
L 135.65 322.15
Q 135.45 322.65 135.8 323.25
L 136.55 324.15
Q 136.9 324.7 136.75 325.1
L 136.3 325.55 135.4 326.25
Q 135.05 326.45 134.8 326.45
L 134.4 326.3
Q 134.25 326.3 134.15 326.6 134.15 326.85 134.3 327 134.65 327.35 135 327.5 134.9 327.6 134.25 327.45 133.7 327.35 133.55 327.7 133.45 327.95 133.75 328.25
L 134.2 328.75
Q 132.8 329.8 131.3 331.4 129.3 333.35 128.75 334.9 128.5 335.7 128.25 337.6 128.15 338.2 127.4 340.05 126.4 342.9 125.8 346.35 125.5 348.1 125 352.8 124.85 354.15 124.95 355.2 125.1 356.9 126.35 358.3 127.05 359 127.55 359.35
L 128.85 360.35 129.85 361.35
Q 131.55 371.15 130.5 380.7
L 130.1 385.15 130.35 395.5
Q 130.35 398.95 130.5 401.05 130.6 401.8 130.85 402 131.1 402.25 131.75 402.25 134.9 402.5 137.65 403.35 137.95 404.45 137.4 406.05
L 136.25 408.75
Q 135.7 410.4 135.45 412.85 135 417.6 135.6 422
L 136.05 425.15
Q 136.25 427.65 136.25 429.95 136.25 432 135.9 433.2
L 134.75 435.65
Q 134.6 435.95 134.6 436.2 134.15 437.1 134.15 437.6 134.05 438.3 134.6 439.3 135.4 440.75 135.45 441 135.65 441.65 135.65 443.3 135.9 444.6 136.75 445.7 137.55 446.75 138.8 447.4 141 448.6 144.05 448.05 145.05 447.8 145.4 447.4 146.1 446.55 145.1 444.8 146.95 445.3 149.05 445 150.2 444.85 151.95 444.2 152.8 443.9 153.05 443.45 153.35 442.65 152.65 442.1 152.3 441.75 151.3 441.45 148.75 440.5 147.1 439.3 145.05 437.7 144.35 435.55 144.05 434.3 144 432.9 143.95 430.5 144.5 426.85 144.9 424.75 145.85 420.9
L 147.25 415.3
Q 148.45 410.2 149.45 407
L 149.9 405
Q 149.9 404.8 149.8 404.6 150.05 404.05 150.05 403.1 156.2 402.3 162.25 402.5 163.05 402.5 163.15 402.25 163.3 402.1 163.3 401.55 163.25 400.75 163.5 397.65 163.95 393.45 163.85 384.45
L 163.65 366.25
Q 163.6 363.65 163.75 362.05 163.85 361.45 164.4 359.1 164.85 357.4 165.05 356.15 165.3 354.95 165.4 353.05 165.45 351.65 165.3 350.6 165.1 349.3 164.1 346.95
L 161.05 339.8
Q 160.95 339.45 160.75 339.4
L 160.35 337.65
Q 160.35 336.2 160.2 335.5 159.95 334.55 158.85 333.5 157.35 332.1 155 330.45 151.4 327.85 149.8 327 149.75 325.35 150.55 324.15
L 152.8 321.65
Q 153.7 320.55 154.15 319.15 154.55 317.6 154.2 316.35 154.05 315.6 153.35 314.25 151.75 311.25 149.55 308.85 148.6 307.8 147.65 307.35 147.15 307.15 146.5 307.05 Z"/>
</g>

<g id="Layer0_1_MEMBER_0_MEMBER_3_MEMBER_6_MEMBER_0_MEMBER_0_MEMBER_0_FILL">
<path fill="#FF5A32" stroke="none" d="
M 143.15 340.8
Q 142.3 340.05 141.5 341
L 124.3 362.2
Q 123.55 363.15 124.5 363.85
L 140 376.45
Q 140.9 377.2 141.65 376.25
L 158.85 355.05
Q 159.6 354.05 158.65 353.4
L 143.15 340.8 Z"/>
</g>

<g id="Layer0_1_MEMBER_0_MEMBER_3_MEMBER_7_MEMBER_0_MEMBER_0_MEMBER_0_FILL">
<path fill="#004B72" stroke="none" d="
M 150.45 359.5
Q 149.95 359.45 148.25 359.6 146.85 359.75 146.15 359.55 145.75 358.75 144.05 357.5 139.05 354.35 137.55 353.5 136.15 352.7 135.4 352.05
L 134.75 351.3
Q 134.35 350.95 133.95 350.8 133.35 350.6 132.5 350.9 129.5 351.75 127.6 354.15 126.4 355.8 126.55 357.2 126.65 358.2 127.65 359.75 128.25 360.8 128.95 361.55 129.45 362.15 130.95 363.2 132.45 364.25 133 364.8
L 135.1 366.95 136.7 368.15 137.35 368.8
Q 137.8 369.2 138.1 369.25 139.1 369.5 140.3 368.2 142.95 365.4 142.95 363.1 143.35 363.05 143.6 363.5
L 143.85 364.25
Q 144.15 364.9 144.95 365.25
L 146.45 365.85
Q 147.85 366.3 149.05 367.35
L 150.05 368.15
Q 150.7 368.5 151.15 368.35 152 368.2 152.6 366.7
L 153.65 363.95
Q 154.4 362.05 153.85 361.15 153.5 360.65 152.45 360.25 151.45 359.75 150.45 359.5 Z"/>
</g>

<g id="Layer0_1_MEMBER_0_MEMBER_3_MEMBER_8_MEMBER_0_MEMBER_0_MEMBER_0_FILL">
<path fill="#004B72" stroke="none" d="
M 208.3 312.75
Q 206.2 315.25 206.05 318.95 205.9 321.9 207.25 325.5
L 207.45 326.1
Q 207.2 326.1 207.05 326.25 206.7 326.4 206.25 326.85 204.95 328.45 204.85 330.6 204.85 331.3 205.1 331.7 205.25 331.95 205.75 332.3 205.1 332.85 203.3 333.9
L 197.5 336.85
Q 196.45 337.55 196.05 338 194.5 339.7 194.8 343.05 194.95 344.65 195.85 347.5 197.45 352.9 198.9 355.45
L 199.85 357.05
Q 200.45 358.1 200.55 358.8 200.85 359.85 200.7 361.3 200.45 362.7 200.15 363.8 198.55 370.55 197.65 378.15 197.2 382.2 197.6 384.25 197.7 384.85 198 385 198.05 385.05 198.15 385 198 386.3 198.1 388.3
L 198.65 396.4
Q 199.05 401.15 199.15 404.45
L 198.55 420.2
Q 198.25 429.7 199.65 435.75 200.1 437.25 200.1 438.5
L 200.05 439.5
Q 200.05 440.15 200.2 440.5 200.45 441 201 441.35
L 203.6 442.95
Q 204.55 443.6 205.2 443.65 205.9 443.9 206.95 443.65 207.9 443.45 208.5 442.75 209.1 442.15 209.35 441.25 209.55 440.3 209.35 439.45 210.6 439.55 211.65 440.75 213.55 442.7 213.7 442.8 214.9 443.7 217.5 443.8 218.45 443.85 218.95 443.5 219.6 443 219.6 441.9 219.6 441.05 219.4 440.1
L 219.05 438.25
Q 218.9 436.7 219.65 433.4 220.9 427.15 221.25 416.3 221.7 404.05 222.5 399.2
L 224 391.05
Q 224.8 386.85 225 384.2 225.7 383.95 225.9 383.7 226.1 383.35 226.1 382.5
L 224.8 365.15
Q 224.65 363.25 225.45 362.65 225.95 362.25 226.9 362.25
L 228.45 362.2
Q 229.2 362.2 230 362 231.9 361.45 232.35 360.1 232.6 359.35 232.2 357.55 231.9 355.8 232.3 355.05 232.5 354.7 233.2 354.05 233.95 353.45 234.2 353.1 234.85 352.15 234.55 350.85 234.4 349.85 233.75 348.5
L 231.9 344.55
Q 230.4 341.45 229.45 340.05 227.9 337.75 225.8 336.75 225.2 336.45 223.55 335.95 221.95 335.5 221.25 335.2 220.15 334.75 217.9 333.15 215.3 331.4 215.55 329.65 215.7 328.9 216.3 328.25
L 217.4 326.95
Q 218.35 325.7 218.85 322.9 219.5 319.8 219.5 317.8 219.35 314.85 217.75 313.05 216.55 311.8 214.5 311.1 212.35 310.4 210.75 311 209.45 311.45 208.3 312.75
M 211.4 414.5
Q 211.35 417.9 211 420.1
L 209.4 427.3
Q 208.9 429.65 209.1 430.9
L 208.45 429
Q 208.1 428.15 207.9 427.05 207.75 426.3 207.75 424.65
L 207.75 418.3
Q 207.75 416.65 207.95 416
L 208.85 414.2
Q 209.55 412.7 209.9 409.25 210.35 405.8 211.15 404.35 211.45 406 211.55 408.6
L 211.4 414.5 Z"/>
</g>

<g id="Layer0_1_MEMBER_0_MEMBER_3_MEMBER_9_MEMBER_0_MEMBER_0_MEMBER_0_FILL">
<path fill="#004B72" stroke="none" d="
M 273.9 319.2
Q 273.55 317.45 273 316.6 272.05 314.95 269.95 314.3 267.95 313.7 266.15 314.55 264.25 315.5 263.25 317.6 262.3 319.55 262.1 321.9 261.95 324.1 262.2 325.35 262.4 326.3 262.85 327.6
L 263.6 329.8
Q 264.15 331.65 263.65 332.65 263.35 333.3 262.55 333.85 261.85 334.45 259.95 335.3 258.1 336 257.3 336.65 257 336.85 256 337.75 255.15 338.55 254.6 338.8
L 251.8 340.55
Q 251.25 341.2 250.65 342.8
L 246.95 352.6
Q 246.3 354.55 246.2 355.65 246.05 357.45 247.3 358.45 247.5 358.65 248.3 359
L 249.3 359.5
Q 250 359.9 251.25 361.1
L 252.35 361.85
Q 252.8 362.1 253.35 362.65 254 363.45 254.25 364.6 254.85 366.75 255.15 369.5
L 255.35 374.5
Q 255.65 388.9 254.5 404 254.45 405.2 254.85 405.6 255.2 405.95 256.1 406
L 258.5 406.2
Q 258.4 413.15 258 419.25
L 257.45 427.6
Q 257.1 431.45 256.9 432.5 256.5 435.35 255.8 437.25 254.45 441.05 251.95 442.25 250.85 442.8 250.6 443.05 249.95 443.55 250.1 444.25 250.35 445.15 251.9 445.2 254.1 445.35 256.85 445.05 259.05 444.75 261.8 444.25 264 443.8 264.8 443.2 265.5 442.75 265.9 441.8 266.35 440.95 266.25 440 266.8 440.25 267.45 439.95 268.15 439.6 268.4 439 268.8 438.05 268.75 436.5
L 268.2 406.95 269.2 407
Q 270 411.8 271.05 421.6 271.75 428.45 271.8 429.95 272.1 434.75 271.9 438.3 271.85 440.2 272.1 440.95 272.3 441.5 272.9 442 273.5 442.45 274.15 442.3 274.65 444.6 275.85 446.05 277.45 447.95 279.45 447.85 280.45 447.85 281.4 447.2 282.35 446.5 282.5 445.55 282.75 444.7 282.3 443.2 281.65 441.75 281.4 440.85 282.15 440.8 282.4 439.85 282.5 439.2 282.3 438.3 279.55 423.05 279.9 407.45
L 279.9 406.95
Q 281.4 406.65 282.1 406 282.9 405.2 283.05 404 283.2 403.05 283.05 401.6 281.65 383.65 281.15 367.95 281.1 366.25 281.35 365.25 281.5 364.55 282 363.7
L 282.8 362.2
Q 283.5 360.85 283.85 358.6
L 284.45 354.85
Q 284.55 354.25 285.05 352.45
L 285.55 350.05
Q 286 346.75 284.95 342.05 284.35 339.35 283.3 338.15 282.15 336.8 278.9 335.8 275.5 334.65 274.35 333.65 273.4 332.85 273.15 331.75 273.05 331.05 273.2 330.4
L 273.55 329.05
Q 273.9 327.7 274.05 325.55
L 274.05 322
Q 274.05 320.2 273.9 319.2 Z"/>
</g>

<g id="Layer0_1_MEMBER_0_MEMBER_3_MEMBER_10_MEMBER_0_MEMBER_0_MEMBER_0_FILL">
<path fill="#004B72" stroke="none" d="
M 298.4 318.6
Q 296.8 316.75 294 316.45 291.3 316.15 289.2 317.7 287.45 319 286 322.2 285.15 324.2 284.55 326.35 283.7 329.35 284.75 330.9
L 286.25 332.55
Q 287.15 333.45 287.15 334.3 287.15 334.8 286.85 335.75
L 286.75 336.7
Q 286.75 337.4 286.65 337.6 286.5 338.6 285.35 339.65
L 283.5 341.5
Q 282.75 342.6 282.4 344.1 282.2 345 282 346.95
L 281.2 352.25
Q 280.95 354.1 280.8 360.2
L 280.65 372.2
Q 280.5 377.95 280.9 381.05 281.5 385.45 283.15 389.25
L 285.3 393.75
Q 288.15 400.35 289.25 410.4
L 289.6 413.7
Q 289.95 415.9 290.3 416.9
L 291.2 419.95
Q 291.5 421.8 290.85 422.9 290.7 423.25 290.25 423.7
L 289.6 424.45
Q 288.55 425.7 288.2 427.45 287.9 429.05 288.2 430.75 288.5 432.25 288.2 432.75 287.95 433.15 286.95 433.85 286.75 433.95 285.05 435.3 283.9 436.2 283.05 436.5
L 281.7 437.05
Q 280.95 437.65 281.15 438.7 281.4 439.75 282.15 440.25 282.85 440.75 283.9 440.8 284.85 440.9 285.8 440.85
L 290.35 440.6
Q 291.7 440.55 292.4 440.6 293.45 440.65 294.35 441 294.35 441.6 293.95 442.4
L 293.2 443.75
Q 292.3 445.5 292.85 446.6 293.35 447.45 294.8 447.75 297.05 448.2 299.2 446.75 301.35 445.25 301.7 442.95 301.9 441.2 302.1 440.7 302.25 440.3 302.7 439.75
L 303.3 438.85
Q 303.85 437.9 304.1 436.4
L 304.1 425.5
Q 303.85 420.5 303.25 417.25 302.7 413.65 302.7 412.6 302.7 411.35 303.1 408.95 303.65 406.25 303.75 405.25 303.85 404.35 303.85 401.15 303.8 398.9 303.9 397.05 304.1 395.55 304.4 394.05 304.85 392.35 305.05 391.1 306.1 385.8 305.9 377.55 305.9 373.4 306.05 371.6 306.65 368.4 306.75 367.15 307.05 364.2 306.85 359.95 306.85 358.15 307.1 357.5 307.35 356.85 308.45 355.55 309.4 354.45 309.55 353.6 309.65 353.1 309.5 352.25
L 309.2 350.9
Q 309.1 350.4 308.7 346.2 308.4 343.2 307.45 341.75 305.95 339.25 302.4 338.4 300.6 338 300.1 337.8 298.85 337.25 298.5 336.35 298.25 335.65 298.55 334.75
L 299.25 333.15
Q 300.3 331.05 300.6 329.25 300.9 327.85 300.75 325.2 300.4 320.9 298.4 318.6 Z"/>
</g>

<g id="Layer0_1_MEMBER_0_MEMBER_3_MEMBER_11_MEMBER_0_MEMBER_0_MEMBER_0_FILL">
<path fill="#FF5A32" stroke="none" d="
M 280.4 370.5
Q 279.35 370.95 279.8 372.05
L 287.6 390.4
Q 288.05 391.5 289.15 391.05
L 314.25 380.35
Q 315.35 379.9 314.9 378.8
L 307.1 360.45
Q 306.65 359.35 305.55 359.8
L 280.4 370.5 Z"/>
</g>

<g id="Layer0_1_MEMBER_0_MEMBER_3_MEMBER_12_MEMBER_0_MEMBER_0_MEMBER_0_FILL">
<path fill="#004B72" stroke="none" d="
M 305.85 365.35
L 306 363.15
Q 306.15 361.65 305.6 358.4 305.05 355.25 302.15 355.3 299.2 355.4 299.65 357.7 300 359.6 300.2 362.15 300.35 364.15 300.1 366 299.75 368.65 299.75 370.45
L 299.7 374.3
Q 299.7 376.35 299.45 378.1 299.25 379.55 298.95 380.75 298.2 384.2 296.85 387.5 296.55 388.2 296.65 388.5 296.65 388.8 296.85 389 297.05 389.2 297.35 389.15
L 297.8 388.85 299.3 387.35
Q 299.45 387.5 299.25 387.8 299.05 388.15 299.05 388.35 299.05 388.6 299.55 388.7 300.6 388.85 301.7 388.2 302.7 387.6 303.1 386.5 303.35 385.85 303.35 385.05
L 303.35 383.5
Q 303.35 382.2 303.5 380.9
L 305.05 371.25
Q 305.6 368.1 305.85 365.35 Z"/>
</g>
</defs>

<g transform="matrix( 1, 0, 0, 1, -41.5,-55.25) ">
<use xlink:href="#Layer0_0_MEMBER_0_FILL"/>
</g>

<g transform="matrix( 1, 0, 0, 1, -41.5,-55.25) ">
<use xlink:href="#Layer0_0_MEMBER_1_FILL"/>
</g>

<g transform="matrix( 1, 0, 0, 1, -41.5,-55.25) ">
<use xlink:href="#Layer0_0_MEMBER_2_FILL"/>
</g>

<g transform="matrix( 1, 0, 0, 1, -41.5,-55.25) ">
<use xlink:href="#Layer0_0_MEMBER_3_FILL"/>
</g>

<g transform="matrix( 1, 0, 0, 1, -41.5,-55.25) ">
<use xlink:href="#Layer0_1_MEMBER_0_MEMBER_0_MEMBER_0_MEMBER_0_MEMBER_0_MEMBER_0_FILL"/>
</g>

<g transform="matrix( 1, 0, 0, 1, -41.5,-55.25) ">
<use xlink:href="#Layer0_1_MEMBER_0_MEMBER_1_MEMBER_0_MEMBER_0_MEMBER_0_MEMBER_0_FILL"/>
</g>

<g transform="matrix( 1, 0, 0, 1, -41.5,-55.25) ">
<use xlink:href="#Layer0_1_MEMBER_0_MEMBER_1_MEMBER_0_MEMBER_0_MEMBER_0_MEMBER_1_FILL"/>
</g>

<g transform="matrix( 1, 0, 0, 1, -41.5,-55.25) ">
<use xlink:href="#Layer0_1_MEMBER_0_MEMBER_1_MEMBER_1_MEMBER_0_MEMBER_0_MEMBER_0_FILL"/>
</g>

<g transform="matrix( 1, 0, 0, 1, -41.5,-55.25) ">
<use xlink:href="#Layer0_1_MEMBER_0_MEMBER_1_MEMBER_2_MEMBER_0_MEMBER_0_MEMBER_0_FILL"/>
</g>

<g transform="matrix( 1, 0, 0, 1, -41.5,-55.25) ">
<use xlink:href="#Layer0_1_MEMBER_0_MEMBER_1_MEMBER_2_MEMBER_0_MEMBER_0_MEMBER_1_FILL"/>
</g>

<g transform="matrix( 1, 0, 0, 1, -41.5,-55.25) ">
<use xlink:href="#Layer0_1_MEMBER_0_MEMBER_1_MEMBER_3_MEMBER_0_MEMBER_0_MEMBER_0_FILL"/>
</g>

<g transform="matrix( 1, 0, 0, 1, -41.5,-55.25) ">
<use xlink:href="#Layer0_1_MEMBER_0_MEMBER_2_MEMBER_0_MEMBER_0_MEMBER_0_MEMBER_0_MEMBER_0_MEMBER_0_MEMBER_0_MEMBER_0_FILL"/>
</g>

<g transform="matrix( 1, 0, 0, 1, -41.5,-55.25) ">
<use xlink:href="#Layer0_1_MEMBER_0_MEMBER_2_MEMBER_0_MEMBER_0_MEMBER_0_MEMBER_0_MEMBER_0_MEMBER_0_MEMBER_0_MEMBER_1_FILL"/>
</g>

<g transform="matrix( 1, 0, 0, 1, -41.5,-55.25) ">
<use xlink:href="#Layer0_1_MEMBER_0_MEMBER_2_MEMBER_0_MEMBER_0_MEMBER_0_MEMBER_0_MEMBER_0_MEMBER_0_MEMBER_0_MEMBER_2_FILL"/>
</g>

<g transform="matrix( 1, 0, 0, 1, -41.5,-55.25) ">
<use xlink:href="#Layer0_1_MEMBER_0_MEMBER_2_MEMBER_0_MEMBER_0_MEMBER_0_MEMBER_0_MEMBER_0_MEMBER_0_MEMBER_0_MEMBER_3_FILL"/>
</g>

<g transform="matrix( 1, 0, 0, 1, -41.5,-55.25) ">
<use xlink:href="#Layer0_1_MEMBER_0_MEMBER_2_MEMBER_0_MEMBER_0_MEMBER_0_MEMBER_0_MEMBER_0_MEMBER_0_MEMBER_0_MEMBER_4_FILL"/>
</g>

<g transform="matrix( 1, 0, 0, 1, -41.5,-55.25) ">
<use xlink:href="#Layer0_1_MEMBER_0_MEMBER_2_MEMBER_0_MEMBER_0_MEMBER_0_MEMBER_0_MEMBER_0_MEMBER_0_MEMBER_0_MEMBER_5_FILL"/>
</g>

<g transform="matrix( 1, 0, 0, 1, -41.5,-55.25) ">
<use xlink:href="#Layer0_1_MEMBER_0_MEMBER_2_MEMBER_0_MEMBER_0_MEMBER_0_MEMBER_0_MEMBER_0_MEMBER_0_MEMBER_0_MEMBER_6_FILL"/>
</g>

<g transform="matrix( 1, 0, 0, 1, -41.5,-55.25) ">
<use xlink:href="#Layer0_1_MEMBER_0_MEMBER_2_MEMBER_0_MEMBER_0_MEMBER_0_MEMBER_0_MEMBER_0_MEMBER_0_MEMBER_0_MEMBER_7_FILL"/>
</g>

<g transform="matrix( 1, 0, 0, 1, -41.5,-55.25) ">
<use xlink:href="#Layer0_1_MEMBER_0_MEMBER_2_MEMBER_0_MEMBER_0_MEMBER_0_MEMBER_0_MEMBER_0_MEMBER_0_MEMBER_0_MEMBER_8_FILL"/>
</g>

<g transform="matrix( 1, 0, 0, 1, -41.5,-55.25) ">
<use xlink:href="#Layer0_1_MEMBER_0_MEMBER_2_MEMBER_0_MEMBER_0_MEMBER_0_MEMBER_0_MEMBER_0_MEMBER_0_MEMBER_0_MEMBER_9_FILL"/>
</g>

<g transform="matrix( 1, 0, 0, 1, -41.5,-55.25) ">
<use xlink:href="#Layer0_1_MEMBER_0_MEMBER_2_MEMBER_0_MEMBER_0_MEMBER_0_MEMBER_0_MEMBER_0_MEMBER_0_MEMBER_0_MEMBER_10_FILL"/>
</g>

<g transform="matrix( 1, 0, 0, 1, -41.5,-55.25) ">
<use xlink:href="#Layer0_1_MEMBER_0_MEMBER_2_MEMBER_0_MEMBER_0_MEMBER_0_MEMBER_0_MEMBER_0_MEMBER_0_MEMBER_0_MEMBER_11_FILL"/>
</g>

<g transform="matrix( 1, 0, 0, 1, -41.5,-55.25) ">
<use xlink:href="#Layer0_1_MEMBER_0_MEMBER_2_MEMBER_0_MEMBER_0_MEMBER_0_MEMBER_0_MEMBER_0_MEMBER_0_MEMBER_0_MEMBER_12_FILL"/>
</g>

<g transform="matrix( 1, 0, 0, 1, -41.5,-55.25) ">
<use xlink:href="#Layer0_1_MEMBER_0_MEMBER_2_MEMBER_0_MEMBER_0_MEMBER_0_MEMBER_0_MEMBER_1_MEMBER_0_MEMBER_0_MEMBER_0_FILL"/>
</g>

<g transform="matrix( 1, 0, 0, 1, -41.5,-55.25) ">
<use xlink:href="#Layer0_1_MEMBER_0_MEMBER_2_MEMBER_0_MEMBER_0_MEMBER_0_MEMBER_0_MEMBER_1_MEMBER_0_MEMBER_0_MEMBER_1_FILL"/>
</g>

<g transform="matrix( 1, 0, 0, 1, -41.5,-55.25) ">
<use xlink:href="#Layer0_1_MEMBER_0_MEMBER_2_MEMBER_0_MEMBER_0_MEMBER_0_MEMBER_0_MEMBER_1_MEMBER_0_MEMBER_0_MEMBER_2_FILL"/>
</g>

<g transform="matrix( 1, 0, 0, 1, -41.5,-55.25) ">
<use xlink:href="#Layer0_1_MEMBER_0_MEMBER_2_MEMBER_0_MEMBER_0_MEMBER_0_MEMBER_0_MEMBER_1_MEMBER_0_MEMBER_0_MEMBER_3_FILL"/>
</g>

<g transform="matrix( 1, 0, 0, 1, -41.5,-55.25) ">
<use xlink:href="#Layer0_1_MEMBER_0_MEMBER_2_MEMBER_0_MEMBER_0_MEMBER_0_MEMBER_0_MEMBER_1_MEMBER_0_MEMBER_0_MEMBER_4_FILL"/>
</g>

<g transform="matrix( 1, 0, 0, 1, -41.5,-55.25) ">
<use xlink:href="#Layer0_1_MEMBER_0_MEMBER_2_MEMBER_0_MEMBER_0_MEMBER_0_MEMBER_0_MEMBER_1_MEMBER_0_MEMBER_0_MEMBER_5_FILL"/>
</g>

<g transform="matrix( 1, 0, 0, 1, -41.5,-55.25) ">
<use xlink:href="#Layer0_1_MEMBER_0_MEMBER_2_MEMBER_0_MEMBER_0_MEMBER_0_MEMBER_0_MEMBER_1_MEMBER_0_MEMBER_0_MEMBER_6_FILL"/>
</g>

<g transform="matrix( 1, 0, 0, 1, -41.5,-55.25) ">
<use xlink:href="#Layer0_1_MEMBER_0_MEMBER_2_MEMBER_0_MEMBER_0_MEMBER_0_MEMBER_0_MEMBER_1_MEMBER_0_MEMBER_0_MEMBER_7_FILL"/>
</g>

<g transform="matrix( 1, 0, 0, 1, -41.5,-55.25) ">
<use xlink:href="#Layer0_1_MEMBER_0_MEMBER_2_MEMBER_0_MEMBER_0_MEMBER_0_MEMBER_0_MEMBER_1_MEMBER_0_MEMBER_0_MEMBER_8_FILL"/>
</g>

<g transform="matrix( 1, 0, 0, 1, -41.5,-55.25) ">
<use xlink:href="#Layer0_1_MEMBER_0_MEMBER_2_MEMBER_0_MEMBER_0_MEMBER_0_MEMBER_0_MEMBER_1_MEMBER_0_MEMBER_0_MEMBER_9_FILL"/>
</g>

<g transform="matrix( 1, 0, 0, 1, -41.5,-55.25) ">
<use xlink:href="#Layer0_1_MEMBER_0_MEMBER_2_MEMBER_0_MEMBER_0_MEMBER_0_MEMBER_0_MEMBER_1_MEMBER_0_MEMBER_0_MEMBER_10_FILL"/>
</g>

<g transform="matrix( 1, 0, 0, 1, -41.5,-55.25) ">
<use xlink:href="#Layer0_1_MEMBER_0_MEMBER_2_MEMBER_0_MEMBER_0_MEMBER_0_MEMBER_0_MEMBER_1_MEMBER_0_MEMBER_0_MEMBER_11_FILL"/>
</g>

<g transform="matrix( 1, 0, 0, 1, -41.5,-55.25) ">
<use xlink:href="#Layer0_1_MEMBER_0_MEMBER_2_MEMBER_0_MEMBER_0_MEMBER_0_MEMBER_0_MEMBER_1_MEMBER_0_MEMBER_0_MEMBER_12_FILL"/>
</g>

<g transform="matrix( 1, 0, 0, 1, -41.5,-55.25) ">
<use xlink:href="#Layer0_1_MEMBER_0_MEMBER_2_MEMBER_0_MEMBER_0_MEMBER_1_MEMBER_0_MEMBER_0_MEMBER_0_FILL"/>
</g>

<g transform="matrix( 1, 0, 0, 1, -41.5,-55.25) ">
<use xlink:href="#Layer0_1_MEMBER_0_MEMBER_2_MEMBER_0_MEMBER_0_MEMBER_1_MEMBER_0_MEMBER_0_MEMBER_1_FILL"/>
</g>

<g transform="matrix( 1, 0, 0, 1, -41.5,-55.25) ">
<use xlink:href="#Layer0_1_MEMBER_0_MEMBER_2_MEMBER_0_MEMBER_0_MEMBER_1_MEMBER_0_MEMBER_0_MEMBER_2_FILL"/>
</g>

<g transform="matrix( 1, 0, 0, 1, -41.5,-55.25) ">
<use xlink:href="#Layer0_1_MEMBER_0_MEMBER_2_MEMBER_0_MEMBER_0_MEMBER_2_MEMBER_0_MEMBER_0_MEMBER_0_FILL"/>
</g>

<g transform="matrix( 1, 0, 0, 1, -41.5,-55.25) ">
<use xlink:href="#Layer0_1_MEMBER_0_MEMBER_2_MEMBER_0_MEMBER_0_MEMBER_3_MEMBER_0_MEMBER_0_MEMBER_0_FILL"/>
</g>

<g transform="matrix( 1, 0, 0, 1, -41.5,-55.25) ">
<use xlink:href="#Layer0_1_MEMBER_0_MEMBER_2_MEMBER_0_MEMBER_0_MEMBER_4_MEMBER_0_MEMBER_0_MEMBER_0_FILL"/>
</g>

<g transform="matrix( 1, 0, 0, 1, -41.5,-55.25) ">
<use xlink:href="#Layer0_1_MEMBER_0_MEMBER_2_MEMBER_0_MEMBER_0_MEMBER_5_MEMBER_0_MEMBER_0_MEMBER_0_FILL"/>
</g>

<g transform="matrix( 1, 0, 0, 1, -41.5,-55.25) ">
<use xlink:href="#Layer0_1_MEMBER_0_MEMBER_2_MEMBER_0_MEMBER_0_MEMBER_6_MEMBER_0_MEMBER_0_MEMBER_0_FILL"/>
</g>

<g transform="matrix( 1, 0, 0, 1, -41.5,-55.25) ">
<use xlink:href="#Layer0_1_MEMBER_0_MEMBER_2_MEMBER_0_MEMBER_0_MEMBER_7_MEMBER_0_MEMBER_0_MEMBER_0_FILL"/>
</g>

<g transform="matrix( 1, 0, 0, 1, -41.5,-55.25) ">
<use xlink:href="#Layer0_1_MEMBER_0_MEMBER_2_MEMBER_0_MEMBER_0_MEMBER_8_MEMBER_0_MEMBER_0_MEMBER_0_FILL"/>
</g>

<g transform="matrix( 1, 0, 0, 1, -41.5,-55.25) ">
<use xlink:href="#Layer0_1_MEMBER_0_MEMBER_2_MEMBER_0_MEMBER_0_MEMBER_9_MEMBER_0_MEMBER_0_MEMBER_0_FILL"/>
</g>

<g transform="matrix( 1, 0, 0, 1, -41.5,-55.25) ">
<use xlink:href="#Layer0_1_MEMBER_0_MEMBER_2_MEMBER_0_MEMBER_0_MEMBER_10_MEMBER_0_MEMBER_0_MEMBER_0_FILL"/>
</g>

<g transform="matrix( 1, 0, 0, 1, -41.5,-55.25) ">
<use xlink:href="#Layer0_1_MEMBER_0_MEMBER_2_MEMBER_0_MEMBER_0_MEMBER_11_MEMBER_0_MEMBER_0_MEMBER_0_FILL"/>
</g>

<g transform="matrix( 1, 0, 0, 1, -41.5,-55.25) ">
<use xlink:href="#Layer0_1_MEMBER_0_MEMBER_2_MEMBER_0_MEMBER_0_MEMBER_12_MEMBER_0_MEMBER_0_MEMBER_0_FILL"/>
</g>

<g transform="matrix( 1, 0, 0, 1, -41.5,-55.25) ">
<use xlink:href="#Layer0_1_MEMBER_0_MEMBER_2_MEMBER_0_MEMBER_0_MEMBER_13_MEMBER_0_MEMBER_0_MEMBER_0_FILL"/>
</g>

<g transform="matrix( 1, 0, 0, 1, -41.5,-55.25) ">
<use xlink:href="#Layer0_1_MEMBER_0_MEMBER_2_MEMBER_0_MEMBER_0_MEMBER_14_MEMBER_0_MEMBER_0_MEMBER_0_FILL"/>
</g>

<g transform="matrix( 1, 0, 0, 1, -41.5,-55.25) ">
<use xlink:href="#Layer0_1_MEMBER_0_MEMBER_2_MEMBER_0_MEMBER_0_MEMBER_15_MEMBER_0_MEMBER_0_MEMBER_0_FILL"/>
</g>

<g transform="matrix( 1, 0, 0, 1, -41.5,-55.25) ">
<use xlink:href="#Layer0_1_MEMBER_0_MEMBER_2_MEMBER_0_MEMBER_0_MEMBER_16_MEMBER_0_MEMBER_0_MEMBER_0_FILL"/>
</g>

<g transform="matrix( 1, 0, 0, 1, -41.5,-55.25) ">
<use xlink:href="#Layer0_1_MEMBER_0_MEMBER_2_MEMBER_0_MEMBER_0_MEMBER_17_MEMBER_0_MEMBER_0_MEMBER_0_FILL"/>
</g>

<g transform="matrix( 1, 0, 0, 1, -41.5,-55.25) ">
<use xlink:href="#Layer0_1_MEMBER_0_MEMBER_2_MEMBER_0_MEMBER_0_MEMBER_18_MEMBER_0_MEMBER_0_MEMBER_0_FILL"/>
</g>

<g transform="matrix( 1, 0, 0, 1, -41.5,-55.25) ">
<use xlink:href="#Layer0_1_MEMBER_0_MEMBER_2_MEMBER_0_MEMBER_0_MEMBER_19_MEMBER_0_MEMBER_0_MEMBER_0_FILL"/>
</g>

<g transform="matrix( 1, 0, 0, 1, -41.5,-55.25) ">
<use xlink:href="#Layer0_1_MEMBER_0_MEMBER_2_MEMBER_0_MEMBER_0_MEMBER_20_MEMBER_0_MEMBER_0_MEMBER_0_FILL"/>
</g>

<g transform="matrix( 1, 0, 0, 1, -41.5,-55.25) ">
<use xlink:href="#Layer0_1_MEMBER_0_MEMBER_2_MEMBER_0_MEMBER_0_MEMBER_21_MEMBER_0_MEMBER_0_MEMBER_0_FILL"/>
</g>

<g transform="matrix( 1, 0, 0, 1, -41.5,-55.25) ">
<use xlink:href="#Layer0_1_MEMBER_0_MEMBER_2_MEMBER_0_MEMBER_0_MEMBER_22_MEMBER_0_MEMBER_0_MEMBER_0_FILL"/>
</g>

<g transform="matrix( 1, 0, 0, 1, -41.5,-55.25) ">
<use xlink:href="#Layer0_1_MEMBER_0_MEMBER_2_MEMBER_0_MEMBER_0_MEMBER_23_MEMBER_0_MEMBER_0_MEMBER_0_FILL"/>
</g>

<g transform="matrix( 1, 0, 0, 1, -41.5,-55.25) ">
<use xlink:href="#Layer0_1_MEMBER_0_MEMBER_2_MEMBER_0_MEMBER_0_MEMBER_24_MEMBER_0_MEMBER_0_MEMBER_0_FILL"/>
</g>

<g transform="matrix( 1, 0, 0, 1, -41.5,-55.25) ">
<use xlink:href="#Layer0_1_MEMBER_0_MEMBER_2_MEMBER_0_MEMBER_0_MEMBER_25_MEMBER_0_MEMBER_0_MEMBER_0_FILL"/>
</g>

<g transform="matrix( 1, 0, 0, 1, -41.5,-55.25) ">
<use xlink:href="#Layer0_1_MEMBER_0_MEMBER_2_MEMBER_0_MEMBER_0_MEMBER_26_MEMBER_0_MEMBER_0_MEMBER_0_FILL"/>
</g>

<g transform="matrix( 1, 0, 0, 1, -41.5,-55.25) ">
<use xlink:href="#Layer0_1_MEMBER_0_MEMBER_2_MEMBER_0_MEMBER_0_MEMBER_27_MEMBER_0_MEMBER_0_MEMBER_0_FILL"/>
</g>

<g transform="matrix( 1, 0, 0, 1, -41.5,-55.25) ">
<use xlink:href="#Layer0_1_MEMBER_0_MEMBER_2_MEMBER_0_MEMBER_0_MEMBER_28_MEMBER_0_MEMBER_0_MEMBER_0_FILL"/>
</g>

<g transform="matrix( 1, 0, 0, 1, -41.5,-55.25) ">
<use xlink:href="#Layer0_1_MEMBER_0_MEMBER_2_MEMBER_0_MEMBER_0_MEMBER_29_MEMBER_0_MEMBER_0_MEMBER_0_FILL"/>
</g>

<g transform="matrix( 1, 0, 0, 1, -41.5,-55.25) ">
<use xlink:href="#Layer0_1_MEMBER_0_MEMBER_2_MEMBER_0_MEMBER_0_MEMBER_30_MEMBER_0_MEMBER_0_MEMBER_0_FILL"/>
</g>

<g transform="matrix( 1, 0, 0, 1, -41.5,-55.25) ">
<use xlink:href="#Layer0_1_MEMBER_0_MEMBER_2_MEMBER_0_MEMBER_0_MEMBER_31_MEMBER_0_MEMBER_0_MEMBER_0_FILL"/>
</g>

<g transform="matrix( 1, 0, 0, 1, -41.5,-55.25) ">
<use xlink:href="#Layer0_1_MEMBER_0_MEMBER_2_MEMBER_0_MEMBER_0_MEMBER_32_MEMBER_0_MEMBER_0_MEMBER_0_FILL"/>
</g>

<g transform="matrix( 1, 0, 0, 1, -41.5,-55.25) ">
<use xlink:href="#Layer0_1_MEMBER_0_MEMBER_2_MEMBER_0_MEMBER_0_MEMBER_33_MEMBER_0_MEMBER_0_MEMBER_0_FILL"/>
</g>

<g transform="matrix( 1, 0, 0, 1, -41.5,-55.25) ">
<use xlink:href="#Layer0_1_MEMBER_0_MEMBER_2_MEMBER_0_MEMBER_0_MEMBER_34_MEMBER_0_MEMBER_0_MEMBER_0_FILL"/>
</g>

<g transform="matrix( 1, 0, 0, 1, -41.5,-55.25) ">
<use xlink:href="#Layer0_1_MEMBER_0_MEMBER_2_MEMBER_0_MEMBER_0_MEMBER_35_MEMBER_0_MEMBER_0_MEMBER_0_FILL"/>
</g>

<g transform="matrix( 1, 0, 0, 1, -41.5,-55.25) ">
<use xlink:href="#Layer0_1_MEMBER_0_MEMBER_2_MEMBER_0_MEMBER_0_MEMBER_36_MEMBER_0_MEMBER_0_MEMBER_0_FILL"/>
</g>

<g transform="matrix( 1, 0, 0, 1, -41.5,-55.25) ">
<use xlink:href="#Layer0_1_MEMBER_0_MEMBER_2_MEMBER_0_MEMBER_0_MEMBER_37_MEMBER_0_MEMBER_0_MEMBER_0_FILL"/>
</g>

<g transform="matrix( 1, 0, 0, 1, -41.5,-55.25) ">
<use xlink:href="#Layer0_1_MEMBER_0_MEMBER_2_MEMBER_0_MEMBER_0_MEMBER_38_MEMBER_0_MEMBER_0_MEMBER_0_FILL"/>
</g>

<g transform="matrix( 1, 0, 0, 1, -41.5,-55.25) ">
<use xlink:href="#Layer0_1_MEMBER_0_MEMBER_2_MEMBER_0_MEMBER_0_MEMBER_38_MEMBER_0_MEMBER_0_MEMBER_1_FILL"/>
</g>

<g transform="matrix( 1, 0, 0, 1, -41.5,-55.25) ">
<use xlink:href="#Layer0_1_MEMBER_0_MEMBER_2_MEMBER_0_MEMBER_0_MEMBER_38_MEMBER_0_MEMBER_0_MEMBER_2_FILL"/>
</g>

<g transform="matrix( 1, 0, 0, 1, -41.5,-55.25) ">
<use xlink:href="#Layer0_1_MEMBER_0_MEMBER_2_MEMBER_0_MEMBER_0_MEMBER_38_MEMBER_0_MEMBER_0_MEMBER_3_FILL"/>
</g>

<g transform="matrix( 1, 0, 0, 1, -41.5,-55.25) ">
<use xlink:href="#Layer0_1_MEMBER_0_MEMBER_2_MEMBER_0_MEMBER_0_MEMBER_38_MEMBER_0_MEMBER_0_MEMBER_4_FILL"/>
</g>

<g transform="matrix( 1, 0, 0, 1, -41.5,-55.25) ">
<use xlink:href="#Layer0_1_MEMBER_0_MEMBER_2_MEMBER_0_MEMBER_0_MEMBER_38_MEMBER_0_MEMBER_0_MEMBER_5_FILL"/>
</g>

<g transform="matrix( 1, 0, 0, 1, -41.5,-55.25) ">
<use xlink:href="#Layer0_1_MEMBER_0_MEMBER_2_MEMBER_0_MEMBER_0_MEMBER_38_MEMBER_0_MEMBER_0_MEMBER_6_FILL"/>
</g>

<g transform="matrix( 1, 0, 0, 1, -41.5,-55.25) ">
<use xlink:href="#Layer0_1_MEMBER_0_MEMBER_2_MEMBER_0_MEMBER_0_MEMBER_38_MEMBER_0_MEMBER_0_MEMBER_7_FILL"/>
</g>

<g transform="matrix( 1, 0, 0, 1, -41.5,-55.25) ">
<use xlink:href="#Layer0_1_MEMBER_0_MEMBER_2_MEMBER_0_MEMBER_0_MEMBER_38_MEMBER_0_MEMBER_0_MEMBER_8_FILL"/>
</g>

<g transform="matrix( 1, 0, 0, 1, -41.5,-55.25) ">
<use xlink:href="#Layer0_1_MEMBER_0_MEMBER_2_MEMBER_0_MEMBER_0_MEMBER_38_MEMBER_0_MEMBER_0_MEMBER_9_FILL"/>
</g>

<g transform="matrix( 1, 0, 0, 1, -41.5,-55.25) ">
<use xlink:href="#Layer0_1_MEMBER_0_MEMBER_2_MEMBER_0_MEMBER_0_MEMBER_38_MEMBER_0_MEMBER_0_MEMBER_10_FILL"/>
</g>

<g transform="matrix( 1, 0, 0, 1, -41.5,-55.25) ">
<use xlink:href="#Layer0_1_MEMBER_0_MEMBER_2_MEMBER_0_MEMBER_0_MEMBER_38_MEMBER_0_MEMBER_0_MEMBER_11_FILL"/>
</g>

<g transform="matrix( 1, 0, 0, 1, -41.5,-55.25) ">
<use xlink:href="#Layer0_1_MEMBER_0_MEMBER_2_MEMBER_0_MEMBER_0_MEMBER_38_MEMBER_0_MEMBER_0_MEMBER_12_FILL"/>
</g>

<g transform="matrix( 1, 0, 0, 1, -41.5,-55.25) ">
<use xlink:href="#Layer0_1_MEMBER_0_MEMBER_2_MEMBER_0_MEMBER_0_MEMBER_39_MEMBER_0_MEMBER_0_MEMBER_0_FILL"/>
</g>

<g transform="matrix( 1, 0, 0, 1, -41.5,-55.25) ">
<use xlink:href="#Layer0_1_MEMBER_0_MEMBER_2_MEMBER_0_MEMBER_0_MEMBER_39_MEMBER_0_MEMBER_0_MEMBER_1_FILL"/>
</g>

<g transform="matrix( 1, 0, 0, 1, -41.5,-55.25) ">
<use xlink:href="#Layer0_1_MEMBER_0_MEMBER_2_MEMBER_0_MEMBER_0_MEMBER_39_MEMBER_0_MEMBER_0_MEMBER_2_FILL"/>
</g>

<g transform="matrix( 1, 0, 0, 1, -41.5,-55.25) ">
<use xlink:href="#Layer0_1_MEMBER_0_MEMBER_2_MEMBER_0_MEMBER_0_MEMBER_39_MEMBER_0_MEMBER_0_MEMBER_3_FILL"/>
</g>

<g transform="matrix( 1, 0, 0, 1, -41.5,-55.25) ">
<use xlink:href="#Layer0_1_MEMBER_0_MEMBER_2_MEMBER_0_MEMBER_0_MEMBER_39_MEMBER_0_MEMBER_0_MEMBER_4_FILL"/>
</g>

<g transform="matrix( 1, 0, 0, 1, -41.5,-55.25) ">
<use xlink:href="#Layer0_1_MEMBER_0_MEMBER_2_MEMBER_0_MEMBER_0_MEMBER_39_MEMBER_0_MEMBER_0_MEMBER_5_FILL"/>
</g>

<g transform="matrix( 1, 0, 0, 1, -41.5,-55.25) ">
<use xlink:href="#Layer0_1_MEMBER_0_MEMBER_2_MEMBER_0_MEMBER_0_MEMBER_39_MEMBER_0_MEMBER_0_MEMBER_6_FILL"/>
</g>

<g transform="matrix( 1, 0, 0, 1, -41.5,-55.25) ">
<use xlink:href="#Layer0_1_MEMBER_0_MEMBER_2_MEMBER_0_MEMBER_0_MEMBER_39_MEMBER_0_MEMBER_0_MEMBER_7_FILL"/>
</g>

<g transform="matrix( 1, 0, 0, 1, -41.5,-55.25) ">
<use xlink:href="#Layer0_1_MEMBER_0_MEMBER_2_MEMBER_0_MEMBER_0_MEMBER_39_MEMBER_0_MEMBER_0_MEMBER_8_FILL"/>
</g>

<g transform="matrix( 1, 0, 0, 1, -41.5,-55.25) ">
<use xlink:href="#Layer0_1_MEMBER_0_MEMBER_2_MEMBER_0_MEMBER_0_MEMBER_39_MEMBER_0_MEMBER_0_MEMBER_9_FILL"/>
</g>

<g transform="matrix( 1, 0, 0, 1, -41.5,-55.25) ">
<use xlink:href="#Layer0_1_MEMBER_0_MEMBER_2_MEMBER_0_MEMBER_0_MEMBER_39_MEMBER_0_MEMBER_0_MEMBER_10_FILL"/>
</g>

<g transform="matrix( 1, 0, 0, 1, -41.5,-55.25) ">
<use xlink:href="#Layer0_1_MEMBER_0_MEMBER_2_MEMBER_0_MEMBER_0_MEMBER_39_MEMBER_0_MEMBER_0_MEMBER_11_FILL"/>
</g>

<g transform="matrix( 1, 0, 0, 1, -41.5,-55.25) ">
<use xlink:href="#Layer0_1_MEMBER_0_MEMBER_2_MEMBER_0_MEMBER_0_MEMBER_39_MEMBER_0_MEMBER_0_MEMBER_12_FILL"/>
</g>

<g transform="matrix( 1, 0, 0, 1, -41.5,-55.25) ">
<use xlink:href="#Layer0_1_MEMBER_0_MEMBER_2_MEMBER_0_MEMBER_0_MEMBER_40_MEMBER_0_MEMBER_0_MEMBER_0_FILL"/>
</g>

<g transform="matrix( 1, 0, 0, 1, -41.5,-55.25) ">
<use xlink:href="#Layer0_1_MEMBER_0_MEMBER_2_MEMBER_0_MEMBER_0_MEMBER_40_MEMBER_0_MEMBER_0_MEMBER_1_FILL"/>
</g>

<g transform="matrix( 1, 0, 0, 1, -41.5,-55.25) ">
<use xlink:href="#Layer0_1_MEMBER_0_MEMBER_2_MEMBER_0_MEMBER_0_MEMBER_40_MEMBER_0_MEMBER_0_MEMBER_2_FILL"/>
</g>

<g transform="matrix( 1, 0, 0, 1, -41.5,-55.25) ">
<use xlink:href="#Layer0_1_MEMBER_0_MEMBER_2_MEMBER_0_MEMBER_0_MEMBER_40_MEMBER_0_MEMBER_0_MEMBER_3_FILL"/>
</g>

<g transform="matrix( 1, 0, 0, 1, -41.5,-55.25) ">
<use xlink:href="#Layer0_1_MEMBER_0_MEMBER_2_MEMBER_0_MEMBER_0_MEMBER_40_MEMBER_0_MEMBER_0_MEMBER_4_FILL"/>
</g>

<g transform="matrix( 1, 0, 0, 1, -41.5,-55.25) ">
<use xlink:href="#Layer0_1_MEMBER_0_MEMBER_2_MEMBER_0_MEMBER_0_MEMBER_40_MEMBER_0_MEMBER_0_MEMBER_5_FILL"/>
</g>

<g transform="matrix( 1, 0, 0, 1, -41.5,-55.25) ">
<use xlink:href="#Layer0_1_MEMBER_0_MEMBER_2_MEMBER_0_MEMBER_0_MEMBER_40_MEMBER_0_MEMBER_0_MEMBER_6_FILL"/>
</g>

<g transform="matrix( 1, 0, 0, 1, -41.5,-55.25) ">
<use xlink:href="#Layer0_1_MEMBER_0_MEMBER_2_MEMBER_0_MEMBER_0_MEMBER_40_MEMBER_0_MEMBER_0_MEMBER_7_FILL"/>
</g>

<g transform="matrix( 1, 0, 0, 1, -41.5,-55.25) ">
<use xlink:href="#Layer0_1_MEMBER_0_MEMBER_2_MEMBER_0_MEMBER_0_MEMBER_40_MEMBER_0_MEMBER_0_MEMBER_8_FILL"/>
</g>

<g transform="matrix( 1, 0, 0, 1, -41.5,-55.25) ">
<use xlink:href="#Layer0_1_MEMBER_0_MEMBER_2_MEMBER_0_MEMBER_0_MEMBER_40_MEMBER_0_MEMBER_0_MEMBER_9_FILL"/>
</g>

<g transform="matrix( 1, 0, 0, 1, -41.5,-55.25) ">
<use xlink:href="#Layer0_1_MEMBER_0_MEMBER_3_MEMBER_0_MEMBER_0_MEMBER_0_MEMBER_0_FILL"/>
</g>

<g transform="matrix( 1, 0, 0, 1, -41.5,-55.25) ">
<use xlink:href="#Layer0_1_MEMBER_0_MEMBER_3_MEMBER_1_MEMBER_0_MEMBER_0_MEMBER_0_FILL"/>
</g>

<g transform="matrix( 1, 0, 0, 1, -41.5,-55.25) ">
<use xlink:href="#Layer0_1_MEMBER_0_MEMBER_3_MEMBER_2_MEMBER_0_MEMBER_0_MEMBER_0_FILL"/>
</g>

<g transform="matrix( 1, 0, 0, 1, -41.5,-55.25) ">
<use xlink:href="#Layer0_1_MEMBER_0_MEMBER_3_MEMBER_3_MEMBER_0_MEMBER_0_MEMBER_0_FILL"/>
</g>

<g transform="matrix( 1, 0, 0, 1, -41.5,-55.25) ">
<use xlink:href="#Layer0_1_MEMBER_0_MEMBER_3_MEMBER_4_MEMBER_0_MEMBER_0_MEMBER_0_FILL"/>
</g>

<g transform="matrix( 1, 0, 0, 1, -41.5,-55.25) ">
<use xlink:href="#Layer0_1_MEMBER_0_MEMBER_3_MEMBER_5_MEMBER_0_MEMBER_0_MEMBER_0_FILL"/>
</g>

<g transform="matrix( 1, 0, 0, 1, -41.5,-55.25) ">
<use xlink:href="#Layer0_1_MEMBER_0_MEMBER_3_MEMBER_6_MEMBER_0_MEMBER_0_MEMBER_0_FILL"/>
</g>

<g transform="matrix( 1, 0, 0, 1, -41.5,-55.25) ">
<use xlink:href="#Layer0_1_MEMBER_0_MEMBER_3_MEMBER_7_MEMBER_0_MEMBER_0_MEMBER_0_FILL"/>
</g>

<g transform="matrix( 1, 0, 0, 1, -41.5,-55.25) ">
<use xlink:href="#Layer0_1_MEMBER_0_MEMBER_3_MEMBER_8_MEMBER_0_MEMBER_0_MEMBER_0_FILL"/>
</g>

<g transform="matrix( 1, 0, 0, 1, -41.5,-55.25) ">
<use xlink:href="#Layer0_1_MEMBER_0_MEMBER_3_MEMBER_9_MEMBER_0_MEMBER_0_MEMBER_0_FILL"/>
</g>

<g transform="matrix( 1, 0, 0, 1, -41.5,-55.25) ">
<use xlink:href="#Layer0_1_MEMBER_0_MEMBER_3_MEMBER_10_MEMBER_0_MEMBER_0_MEMBER_0_FILL"/>
</g>

<g transform="matrix( 1, 0, 0, 1, -41.5,-55.25) ">
<use xlink:href="#Layer0_1_MEMBER_0_MEMBER_3_MEMBER_11_MEMBER_0_MEMBER_0_MEMBER_0_FILL"/>
</g>

<g transform="matrix( 1, 0, 0, 1, -41.5,-55.25) ">
<use xlink:href="#Layer0_1_MEMBER_0_MEMBER_3_MEMBER_12_MEMBER_0_MEMBER_0_MEMBER_0_FILL"/>
</g>
</svg>
